<?xml version="1.0" encoding="UTF-8" standalone="no"?>
<!-- Created with Inkscape (http://www.inkscape.org/) -->

<svg
   xmlns:dc="http://purl.org/dc/elements/1.1/"
   xmlns:cc="http://creativecommons.org/ns#"
   xmlns:rdf="http://www.w3.org/1999/02/22-rdf-syntax-ns#"
   xmlns:svg="http://www.w3.org/2000/svg"
   xmlns="http://www.w3.org/2000/svg"
   xmlns:sodipodi="http://sodipodi.sourceforge.net/DTD/sodipodi-0.dtd"
   xmlns:inkscape="http://www.inkscape.org/namespaces/inkscape"
   width="50"
   height="50"
   viewBox="0 0 13.229166 13.229168"
   version="1.1"
   id="svg1424"
   inkscape:version="0.92.2 (5c3e80d, 2017-08-06)"
   sodipodi:docname="gps.svg">
  <defs
     id="defs1418" />
  <sodipodi:namedview
     id="base"
     pagecolor="#ffffff"
     bordercolor="#666666"
     borderopacity="1.0"
     inkscape:pageopacity="0.0"
     inkscape:pageshadow="2"
     inkscape:zoom="7.9195959"
     inkscape:cx="18.831182"
     inkscape:cy="18.805646"
     inkscape:document-units="mm"
     inkscape:current-layer="layer1"
     showgrid="false"
     units="px"
     inkscape:window-width="1366"
     inkscape:window-height="705"
     inkscape:window-x="-8"
     inkscape:window-y="-8"
     inkscape:window-maximized="1" />
  <metadata
     id="metadata1421">
    <rdf:RDF>
      <cc:Work
         rdf:about="">
        <dc:format>image/svg+xml</dc:format>
        <dc:type
           rdf:resource="http://purl.org/dc/dcmitype/StillImage" />
        <dc:title></dc:title>
      </cc:Work>
    </rdf:RDF>
  </metadata>
  <g
     inkscape:label="Layer 1"
     inkscape:groupmode="layer"
     id="layer1"
     transform="translate(0,-283.77082)">
    <path
       id="path1969"
       overflow="visible"
       d="m 6.3367755,285.09373 c -0.056092,0 -0.1059392,0.0198 -0.1455208,0.0595 l -1.6801035,1.6801 c -0.039794,0.0398 -0.059531,0.096 -0.059531,0.15214 0,0.0561 0.019738,0.10594 0.059531,0.14552 l 1.0781766,1.08479 c 0.6614581,-0.66146 1.5669678,-1.55993 1.9843744,-1.97776 l -1.0847913,-1.08476 c -0.039582,-0.0398 -0.096044,-0.0595 -0.1521354,-0.0595 z m 2.2952596,0.9988 c -0.1950243,3e-5 -0.385339,0.0678 -0.5291665,0.21167 -0.034714,0.0351 -1.6943911,1.69439 -2.5664574,2.56645 -0.039794,0.0396 -0.066146,0.096 -0.066146,0.15214 0,0.0561 0.026353,0.10572 0.066146,0.14552 l 0.2447395,0.24473 c -0.3848031,-0.0447 -0.7217287,0.0272 -0.932656,0.23813 a 0.21168776,0.21168738 0 0 0 0,0.29766 l 0.5953124,0.59531 c -0.060384,0.10965 -0.099219,0.22849 -0.099219,0.35719 0,0.20108 0.076042,0.39353 0.2182812,0.53577 0.1420283,0.14224 0.3346978,0.21828 0.5357811,0.21828 0.1286932,0 0.2474776,-0.0389 0.3571873,-0.0992 l 0.5953124,0.59531 a 0.21168776,0.21168738 0 0 0 0.2976561,0 c 0.2110862,-0.21092 0.2827842,-0.54782 0.2381249,-0.93266 l 0.2447395,0.24474 c 0.041275,0.0413 0.091334,0.0662 0.1455207,0.0662 0.054186,0 0.1106488,-0.0246 0.1521354,-0.0662 0,0 2.5357663,-2.53597 2.5664583,-2.56645 0.14224,-0.14203 0.224896,-0.32808 0.224896,-0.52917 0,-0.20108 -0.08266,-0.39375 -0.224896,-0.53577 l -1.5279689,-1.52797 c -0.1422399,-0.14224 -0.3407567,-0.21169 -0.535781,-0.21167 z m 2.1298949,3.33374 c -0.450215,0.45 -1.4435131,1.45035 -1.9777596,1.98438 l 1.0781769,1.07817 c 0.041272,0.0413 0.097949,0.0595 0.1521347,0.0595 0.05418,0 0.110861,-0.0182 0.152135,-0.0595 l 1.680105,-1.6801 c 0.03979,-0.0396 0.05953,-0.0892 0.05953,-0.14552 0,-0.0563 -0.01974,-0.11255 -0.05953,-0.15214 z m -5.2321334,0.40349 c 0.063212,-0.004 0.1320914,-0.002 0.205052,0.006 0.2918421,0.0339 0.6352821,0.17227 0.9458851,0.48286 0.3105803,0.31049 0.4489954,0.65403 0.4828644,0.94589 0.016934,0.14593 0.00594,0.27458 -0.019844,0.37703 l -0.515937,-0.50871 -0.7606769,-0.76067 -0.5093227,-0.51594 c 0.051224,-0.0129 0.1087674,-0.0226 0.1719791,-0.0265 z m -4.0216652,2.68552 a 0.21168776,0.21168738 0 0 0 -0.1852083,0.21167 c 0,1.62506 1.3250392,2.95009 2.9501031,2.95009 a 0.21168776,0.21168738 0 1 0 0,-0.42333 c -1.396265,0 -2.5267699,-1.1305 -2.5267699,-2.52676 a 0.21168776,0.21168738 0 0 0 -0.2381249,-0.21167 z m 1.5478118,0 a 0.21168776,0.21168738 0 0 0 -0.171979,0.21167 c 0,0.76166 0.6271719,1.38905 1.389062,1.38905 a 0.21168776,0.21168738 0 1 0 0,-0.42333 c -0.5330862,0 -0.9657289,-0.43284 -0.9657289,-0.96572 a 0.21168776,0.21168738 0 0 0 -0.2315103,-0.21167 0.21168776,0.21168738 0 0 0 -0.019844,0 z"
       style="line-height:normal;font-family:'Bitstream Vera Sans';-inkscape-font-specification:'Bitstream Vera Sans';text-indent:0;text-align:start;text-transform:none;overflow:visible;stroke-width:0.21166639;enable-background:accumulate"
       inkscape:connector-curvature="0" />
    <path
       style="opacity:1;fill:#ffffff;stroke:#f40000;stroke-width:0.04772374;stroke-linecap:square;stroke-linejoin:round;stroke-miterlimit:4;stroke-dasharray:none;stroke-opacity:1"
       d="m 15.384036,38.94797 c -2.17493,-0.285466 -4.031302,-2.158492 -4.334161,-4.373045 -0.132232,-0.966901 0.01362,-1.333689 0.548969,-1.380534 0.569414,-0.04983 0.699306,0.108767 0.884311,1.079708 0.364381,1.912347 1.32241,2.877071 3.215267,3.237739 1.020941,0.194531 1.169276,0.290482 1.169276,0.756352 0,0.667458 -0.351283,0.828408 -1.483662,0.67978 z"
       id="path1980"
       inkscape:connector-curvature="0"
       transform="matrix(0.26458333,0,0,0.26458333,0,283.77082)" />
    <path
       style="opacity:1;fill:#ffffff;stroke:#f40000;stroke-width:0.04772374;stroke-linecap:square;stroke-linejoin:round;stroke-miterlimit:4;stroke-dasharray:none;stroke-opacity:1"
       d="M 13.868808,44.698004 C 9.6486194,43.7976 6.1608451,40.277404 5.2926225,36.042096 5.0637815,34.925779 5.0334342,33.764126 5.223819,33.408389 c 0.1547081,-0.289075 0.896287,-0.338825 1.1153855,-0.07483 0.077329,0.09318 0.1963884,0.704002 0.2645773,1.357393 0.1477682,1.415922 0.3860917,2.269196 0.968479,3.467461 0.8477962,1.744344 2.4766352,3.376917 4.2351352,4.244842 1.239753,0.611893 2.082673,0.849138 3.501296,0.985461 0.744652,0.07156 1.256633,0.183383 1.373177,0.299927 0.25726,0.25726 0.232776,0.848834 -0.04349,1.050846 -0.301612,0.220545 -1.635051,0.20057 -2.769569,-0.04149 z"
       id="path1982"
       inkscape:connector-curvature="0"
       transform="matrix(0.26458333,0,0,0.26458333,0,283.77082)" />
    <path
       style="opacity:1;fill:#ffffff;stroke:#f40000;stroke-width:0.04772374;stroke-linecap:square;stroke-linejoin:round;stroke-miterlimit:4;stroke-dasharray:none;stroke-opacity:1"
       d="m 25.74192,30.636566 -1.285394,-1.264897 -0.543077,0.19161 c -1.072189,0.378289 -1.962799,0.163712 -2.801479,-0.674967 -0.83868,-0.83868 -1.053256,-1.72929 -0.674966,-2.801479 l 0.191609,-0.543076 -1.264896,-1.285396 c -0.695692,-0.706966 -1.264896,-1.319367 -1.264896,-1.360892 0,-0.27567 0.348043,-0.724225 0.778517,-1.003351 0.569724,-0.369415 2.030541,-0.667952 2.627205,-0.536902 0.522327,0.114722 0.481109,-0.03912 -0.18586,-0.693702 -0.312516,-0.306711 -0.568211,-0.674585 -0.568211,-0.817498 0,-0.174167 1.738177,-1.993469 5.271733,-5.517778 l 5.271734,-5.2579373 0.704408,-0.1532902 c 0.602837,-0.1311867 0.81222,-0.1220713 1.452095,0.063216 0.722682,0.2092659 0.854422,0.3226612 3.939337,3.3907835 3.41116,3.392591 3.816282,3.920741 3.816282,4.975221 0,0.301111 -0.08724,0.758729 -0.193862,1.016928 -0.261774,0.633907 -10.488842,10.886652 -10.859388,10.886652 -0.142112,0 -0.509331,-0.255695 -0.816043,-0.568211 -0.65458,-0.66697 -0.808424,-0.708188 -0.693701,-0.185861 0.131049,0.596664 -0.167487,2.057481 -0.536904,2.627205 -0.279124,0.430474 -0.727681,0.778517 -1.00335,0.778517 -0.04152,0 -0.653926,-0.569203 -1.360893,-1.264895 z m 1.397606,-1.345664 c 0.04787,-0.255191 0.02423,-0.801755 -0.05254,-1.214587 -0.452985,-2.435801 -2.610529,-4.641688 -5.031551,-5.14429 -0.68105,-0.141385 -1.612343,-0.10918 -1.783189,0.06167 -0.0809,0.0809 6.529412,6.761196 6.690367,6.761196 0.04943,0 0.129044,-0.208794 0.176918,-0.463985 z"
       id="path1984"
       inkscape:connector-curvature="0"
       transform="matrix(0.26458333,0,0,0.26458333,0,283.77082)" />
    <path
       style="opacity:1;fill:#ffffff;stroke:#f40000;stroke-width:0.04772374;stroke-linecap:square;stroke-linejoin:round;stroke-miterlimit:4;stroke-dasharray:none;stroke-opacity:1"
       d="m 35.468227,31.019196 -2.153983,-2.144955 3.69327,-3.694619 3.693269,-3.694618 2.071423,2.083069 c 1.139282,1.145688 2.111337,2.217919 2.160122,2.382735 0.07864,0.265683 -0.303307,0.691673 -3.368139,3.756504 -2.125673,2.125673 -3.550248,3.45684 -3.699409,3.45684 -0.145193,0 -1.107257,-0.861063 -2.396553,-2.144956 z"
       id="path1986"
       inkscape:connector-curvature="0"
       transform="matrix(0.26458333,0,0,0.26458333,0,283.77082)" />
    <path
       style="opacity:1;fill:#ffffff;stroke:#f40000;stroke-width:0.04772374;stroke-linecap:square;stroke-linejoin:round;stroke-miterlimit:4;stroke-dasharray:none;stroke-opacity:1"
       d="m 18.946286,14.499488 c -1.254093,-1.261975 -2.110155,-2.221418 -2.110155,-2.364986 0,-0.147851 1.341101,-1.582671 3.456839,-3.6984086 3.064832,-3.0648319 3.490821,-3.4467806 3.756505,-3.3681391 0.164816,0.048785 1.236923,1.0207172 2.382461,2.1598491 l 2.082796,2.071149 -3.660343,3.6619756 c -2.013188,2.014087 -3.691304,3.661976 -3.729145,3.661976 -0.03784,0 -1.018373,-0.955538 -2.178958,-2.123416 z"
       id="path1988"
       inkscape:connector-curvature="0"
       transform="matrix(0.26458333,0,0,0.26458333,0,283.77082)" />
  </g>
</svg>
