<?xml version="1.0" encoding="UTF-8" standalone="no"?>
<!-- Created with Inkscape (http://www.inkscape.org/) -->

<svg
   xmlns:dc="http://purl.org/dc/elements/1.1/"
   xmlns:cc="http://creativecommons.org/ns#"
   xmlns:rdf="http://www.w3.org/1999/02/22-rdf-syntax-ns#"
   xmlns:svg="http://www.w3.org/2000/svg"
   xmlns="http://www.w3.org/2000/svg"
   xmlns:sodipodi="http://sodipodi.sourceforge.net/DTD/sodipodi-0.dtd"
   xmlns:inkscape="http://www.inkscape.org/namespaces/inkscape"
   width="1000"
   height="1000"
   viewBox="0 0 264.58333 264.58334"
   version="1.1"
   id="svg3594"
   inkscape:version="0.92.2 (5c3e80d, 2017-08-06)"
   sodipodi:docname="gps.svg">
  <defs
     id="defs3588" />
  <sodipodi:namedview
     id="base"
     pagecolor="#ffffff"
     bordercolor="#666666"
     borderopacity="1.0"
     inkscape:pageopacity="0.0"
     inkscape:pageshadow="2"
     inkscape:zoom="0.35"
     inkscape:cx="316.19381"
     inkscape:cy="674.28571"
     inkscape:document-units="mm"
     inkscape:current-layer="layer1"
     showgrid="false"
     units="px"
     inkscape:window-width="1366"
     inkscape:window-height="705"
     inkscape:window-x="-8"
     inkscape:window-y="-8"
     inkscape:window-maximized="1" />
  <metadata
     id="metadata3591">
    <rdf:RDF>
      <cc:Work
         rdf:about="">
        <dc:format>image/svg+xml</dc:format>
        <dc:type
           rdf:resource="http://purl.org/dc/dcmitype/StillImage" />
        <dc:title></dc:title>
      </cc:Work>
    </rdf:RDF>
  </metadata>
  <g
     inkscape:label="Layer 1"
     inkscape:groupmode="layer"
     id="layer1"
     transform="translate(0,-32.4166)">
    <path
       id="path4139"
       overflow="visible"
       d="m 126.04124,45.645766 c -1.26181,0 -2.38377,0.444599 -3.27424,1.339197 l -37.802459,37.80226 c -0.89461,0.894598 -1.33922,2.161075 -1.33922,3.423052 0,1.261798 0.44461,2.383555 1.33922,3.274193 L 109.22363,115.89224 C 124.1064,101.00951 144.48032,80.793931 153.87212,71.392731 L 129.46417,46.984963 c -0.89101,-0.894598 -2.16111,-1.339197 -3.42293,-1.339197 z m 51.6432,22.472952 c -4.38809,7.2e-4 -8.66999,1.526397 -11.90625,4.76261 -0.78121,0.790198 -38.12395,38.123742 -57.74528,57.745132 -0.89461,0.891 -1.48861,2.1609 -1.48861,3.42306 0,1.26179 0.5922,2.37887 1.48861,3.27419 l 5.50663,5.50655 c -8.65811,-1.0062 -16.239079,0.612 -20.984659,5.35787 a 4.7629801,4.7629661 0 0 0 0,6.69724 l 13.394509,13.39449 c -1.35902,2.46726 -2.23257,5.14115 -2.23257,8.03681 0,4.52429 1.71002,8.85454 4.91136,12.05493 3.19558,3.2004 7.53076,4.91129 12.05512,4.91129 2.89569,0 5.56837,-0.8748 8.03674,-2.23235 l 13.39451,13.39449 a 4.7629801,4.7629661 0 0 0 6.69734,0 c 4.74937,-4.74569 6.36273,-12.32584 5.35777,-20.98472 l 5.50663,5.50673 c 0.92881,0.9288 2.05491,1.4886 3.27424,1.4886 1.21862,0 2.48962,-0.5544 3.42311,-1.4886 0,0 57.05479,-57.05952 57.74527,-57.74532 3.20045,-3.19553 5.06023,-7.38178 5.06023,-11.90625 0,-4.52429 -1.85978,-8.8594 -5.06023,-12.05494 L 189.73956,72.881328 c -3.20026,-3.200393 -7.66702,-4.76315 -12.05512,-4.76261 z m 47.92273,75.009262 c -10.12981,10.12498 -32.47907,32.63267 -44.49962,44.64836 l 24.25891,24.25891 c 0.92881,0.9288 2.20394,1.3392 3.4231,1.3392 1.21861,0 2.49447,-0.4104 3.4231,-1.3392 l 37.80228,-37.80226 c 0.89462,-0.891 1.33922,-2.00735 1.33922,-3.27419 0,-1.2672 -0.4446,-2.53242 -1.33922,-3.42305 z m -117.72312,9.07846 c 1.42202,-0.09 2.9722,-0.036 4.61364,0.144 6.56649,0.7632 14.2938,3.87593 21.28257,10.86442 6.98805,6.98596 10.10227,14.71568 10.8644,21.28243 0.38161,3.28337 0.126,6.17795 -0.4464,8.4832 L 132.58973,181.5201 115.47439,164.40501 104.01472,152.79648 c 1.15202,-0.2898 2.44731,-0.5076 3.86951,-0.5958 z m -90.487509,60.42407 a 4.7629801,4.7629661 0 0 0 -4.16723,4.76261 c 0,36.56386 29.81342,66.3772 66.37746,66.3772 a 4.7629801,4.7629661 0 1 0 0,-9.52504 c -31.41598,0 -56.85246,-25.43629 -56.85246,-56.85216 a 4.7629801,4.7629661 0 0 0 -5.35777,-4.76261 z m 34.82576,0 a 4.7629801,4.7629661 0 0 0 -3.86951,4.76261 c 0,17.1374 14.11146,31.25387 31.25398,31.25387 a 4.7629801,4.7629661 0 1 0 0,-9.52504 c -11.99463,0 -21.72897,-9.73906 -21.72897,-21.72883 a 4.7629801,4.7629661 0 0 0 -5.20909,-4.76261 4.7629801,4.7629661 0 0 0 -0.44641,0 z"
       style="line-height:normal;font-family:'Bitstream Vera Sans';-inkscape-font-specification:'Bitstream Vera Sans';text-indent:0;text-align:start;text-transform:none;overflow:visible;stroke-width:1.32291667;enable-background:accumulate;stroke:#000000;stroke-opacity:1;stroke-miterlimit:4;stroke-dasharray:none;fill:#ffffff;fill-opacity:1"
       inkscape:connector-curvature="0" />
  </g>
</svg>
