<?xml version="1.0" encoding="UTF-8" standalone="no"?>
<!-- Created with Inkscape (http://www.inkscape.org/) -->

<svg
   xmlns:osb="http://www.openswatchbook.org/uri/2009/osb"
   xmlns:dc="http://purl.org/dc/elements/1.1/"
   xmlns:cc="http://creativecommons.org/ns#"
   xmlns:rdf="http://www.w3.org/1999/02/22-rdf-syntax-ns#"
   xmlns:svg="http://www.w3.org/2000/svg"
   xmlns="http://www.w3.org/2000/svg"
   xmlns:sodipodi="http://sodipodi.sourceforge.net/DTD/sodipodi-0.dtd"
   xmlns:inkscape="http://www.inkscape.org/namespaces/inkscape"
   width="1000"
   height="1000"
   viewBox="0 0 264.58333 264.58334"
   version="1.1"
   id="svg8"
   inkscape:version="0.92.2 (5c3e80d, 2017-08-06)"
   sodipodi:docname="Location.svg">
  <defs
     id="defs2">
    <linearGradient
       id="linearGradient2335"
       osb:paint="solid">
      <stop
         style="stop-color:#ffffff;stop-opacity:1;"
         offset="0"
         id="stop2333" />
    </linearGradient>
  </defs>
  <sodipodi:namedview
     id="base"
     pagecolor="#ffffff"
     bordercolor="#666666"
     borderopacity="1.0"
     inkscape:pageopacity="0.0"
     inkscape:pageshadow="2"
     inkscape:zoom="0.35"
     inkscape:cx="544.54978"
     inkscape:cy="474.47784"
     inkscape:document-units="mm"
     inkscape:current-layer="layer1"
     showgrid="false"
     units="px"
     inkscape:window-width="1366"
     inkscape:window-height="705"
     inkscape:window-x="-8"
     inkscape:window-y="-8"
     inkscape:window-maximized="1" />
  <metadata
     id="metadata5">
    <rdf:RDF>
      <cc:Work
         rdf:about="">
        <dc:format>image/svg+xml</dc:format>
        <dc:type
           rdf:resource="http://purl.org/dc/dcmitype/StillImage" />
        <dc:title></dc:title>
      </cc:Work>
    </rdf:RDF>
  </metadata>
  <g
     inkscape:label="Layer 1"
     inkscape:groupmode="layer"
     id="layer1"
     transform="translate(0,-32.41665)">
    <path
       style="opacity:1;fill:#ffffff;fill-opacity:0;stroke:#000000;stroke-width:0;stroke-linecap:square;stroke-linejoin:round;stroke-miterlimit:4;stroke-dasharray:none;stroke-opacity:1"
       d="m 462.27765,674.42179 c -61.11557,-13.29677 -111.45499,-56.2428 -134.74692,-114.95657 -7.04519,-17.75936 -7.68746,-22.70075 -7.71695,-59.37163 -0.031,-38.49987 0.31416,-40.85721 9.20263,-62.85714 33.49568,-82.90551 122.36214,-129.90857 210.67622,-111.43042 66.15112,13.84094 123.29432,68.62278 139.95706,134.17356 9.34349,36.75706 2.75329,86.33651 -16.27494,122.43958 -14.5704,27.64502 -49.672,61.15165 -79.43182,75.82254 -39.24838,19.34851 -81.36097,24.949 -121.66528,16.18008 z"
       id="path851"
       inkscape:connector-curvature="0"
       transform="matrix(0.26458333,0,0,0.26458333,0,32.41665)" />
    <path
       style="opacity:1;fill:#ffffff;fill-opacity:0;stroke:#000000;stroke-width:0;stroke-linecap:square;stroke-linejoin:round;stroke-miterlimit:4;stroke-dasharray:none;stroke-opacity:1"
       d="m 401.76512,948.06799 c -3.57443,-0.68608 -8.29597,-4.04671 -10.49234,-7.46805 -2.299,-3.58126 -7.13212,-32.1196 -11.39092,-67.26069 -4.06863,-33.57203 -8.10151,-62.17917 -8.962,-63.57143 -0.86046,-1.39226 -2.88417,-2.53137 -4.49717,-2.53137 -4.96854,0 -42.3321,-19.25569 -61.13701,-31.50757 l -17.83434,-11.61952 -59.26411,26.3624 c -55.70569,24.77955 -59.69033,26.11718 -66.36267,22.27783 -8.31585,-4.78503 -109.22075,-175.00211 -109.253743,-184.30083 -0.02801,-7.89585 5.037385,-12.14154 58.550383,-49.07537 l 45.71429,-31.55131 v -47.8196 -47.8196 L 105.40692,414.05551 C 62.095975,381.94628 53.868708,374.67848 53.283741,368.01088 52.21884,355.87288 151.13148,189.78887 161.61605,186.11029 c 6.42819,-2.25537 16.73631,1.01506 65.09263,20.65178 31.60022,12.83234 58.78874,23.33152 60.41894,23.33152 1.63021,0 8.56552,-3.85394 15.41181,-8.56431 10.19138,-7.01185 56.89443,-31.23102 67.083,-34.78776 1.47097,-0.5135 6.0534,-27.93364 10.18317,-60.93364 4.1298,-33.000002 9.24246,-62.71473 11.36152,-66.032731 2.11903,-3.318 7.95774,-6.853714 12.97486,-7.857142 5.01714,-1.003428 49.50265,-1.824415 98.85671,-1.824415 97.38866,0 107.87391,1.401878 110.78329,14.811721 0.78954,3.639268 4.1102,30.402565 7.3792,59.473997 3.269,29.07143 6.50385,55.56455 7.18854,58.8736 0.89586,4.32957 9.04186,9.78595 29.05346,19.46074 15.29468,7.39435 34.09374,17.95975 41.77565,23.47866 l 13.96712,10.03438 58.96831,-26.23083 c 47.94949,-21.32934 60.27552,-25.77112 65.96392,-23.77061 5.24082,1.8431 19.44528,23.59987 56.6276,86.73571 27.2976,46.35152 50.91337,87.45332 52.47948,91.33738 1.81012,4.48911 1.8662,9.17317 0.154,12.85714 -1.48146,3.18737 -25.89394,21.8476 -54.24997,41.46711 -50.77274,35.12963 -51.52697,35.8028 -49.61937,44.28572 2.58068,11.47603 2.46146,47.65323 -0.22143,67.18528 l -2.15849,15.71429 48.87449,35.71428 c 26.88094,19.64286 50.67371,38.25038 52.87277,41.35003 2.19906,3.09963 3.99829,8.78363 3.99829,12.63109 0,6.50826 -90.63903,164.8212 -99.35586,173.53803 -9.22197,9.22197 -16.29651,7.44071 -75.3138,-18.96283 l -58.40334,-26.12886 -15.18212,10.21683 c -14.89543,10.02383 -60.79183,33.07 -65.85894,33.07 -3.42483,0 -4.50006,6.35471 -11.84411,70 -3.4452,29.85714 -7.30995,57.10123 -8.58832,60.54243 -1.467,3.94897 -6.32637,7.36806 -13.17466,9.26977 -10.44851,2.90149 -182.90268,3.79226 -197.34928,1.01934 z M 552.54978,674.19034 c 35.65254,-10.75235 71.66391,-34.24875 93.41522,-60.95078 57.6142,-70.72745 53.11489,-172.949 -10.44405,-237.28242 -22.46683,-22.74058 -45.19437,-37.01438 -75.85575,-47.64037 -19.85171,-6.87982 -27.30205,-7.93218 -57.11542,-8.06753 -28.17966,-0.12794 -38.102,1.03074 -55.71429,6.50597 -62.81309,19.52707 -111.771,69.7363 -127.11815,130.36724 -5.52912,21.84346 -5.52912,64.09883 0,85.94229 17.09432,67.53334 74.18381,120.06168 147.31441,135.5448 17.77323,3.76291 66.78591,1.23014 85.51803,-4.4192 z"
       id="path853"
       inkscape:connector-curvature="0"
       transform="matrix(0.26458333,0,0,0.26458333,0,32.41665)" />
    <path
       style="opacity:1;fill:#ffffff;fill-opacity:0;stroke:#000000;stroke-width:0;stroke-linecap:square;stroke-linejoin:round;stroke-miterlimit:4;stroke-dasharray:none;stroke-opacity:1"
       d="m 401.76512,948.06799 c -3.57443,-0.68608 -8.29597,-4.04671 -10.49234,-7.46805 -2.299,-3.58126 -7.13212,-32.1196 -11.39092,-67.26069 -4.06863,-33.57203 -8.10151,-62.17917 -8.962,-63.57143 -0.86046,-1.39226 -2.88417,-2.53137 -4.49717,-2.53137 -4.96854,0 -42.3321,-19.25569 -61.13701,-31.50757 l -17.83434,-11.61952 -59.26411,26.3624 c -55.70569,24.77955 -59.69033,26.11718 -66.36267,22.27783 -8.31585,-4.78503 -109.22075,-175.00211 -109.253743,-184.30083 -0.02801,-7.89585 5.037385,-12.14154 58.550383,-49.07537 l 45.71429,-31.55131 v -47.8196 -47.8196 L 105.40692,414.05551 C 62.095975,381.94628 53.868708,374.67848 53.283741,368.01088 52.21884,355.87288 151.13148,189.78887 161.61605,186.11029 c 6.42819,-2.25537 16.73631,1.01506 65.09263,20.65178 31.60022,12.83234 58.78874,23.33152 60.41894,23.33152 1.63021,0 8.56552,-3.85394 15.41181,-8.56431 10.19138,-7.01185 56.89443,-31.23102 67.083,-34.78776 1.47097,-0.5135 6.0534,-27.93364 10.18317,-60.93364 4.1298,-33.000002 9.24246,-62.71473 11.36152,-66.032731 2.11903,-3.318 7.95774,-6.853714 12.97486,-7.857142 5.01714,-1.003428 49.50265,-1.824415 98.85671,-1.824415 97.38866,0 107.87391,1.401878 110.78329,14.811721 0.78954,3.639268 4.1102,30.402565 7.3792,59.473997 3.269,29.07143 6.50385,55.56455 7.18854,58.8736 0.89586,4.32957 9.04186,9.78595 29.05346,19.46074 15.29468,7.39435 34.09374,17.95975 41.77565,23.47866 l 13.96712,10.03438 58.96831,-26.23083 c 47.94949,-21.32934 60.27552,-25.77112 65.96392,-23.77061 5.24082,1.8431 19.44528,23.59987 56.6276,86.73571 27.2976,46.35152 50.91337,87.45332 52.47948,91.33738 1.81012,4.48911 1.8662,9.17317 0.154,12.85714 -1.48146,3.18737 -25.89394,21.8476 -54.24997,41.46711 -50.77274,35.12963 -51.52697,35.8028 -49.61937,44.28572 2.58068,11.47603 2.46146,47.65323 -0.22143,67.18528 l -2.15849,15.71429 48.87449,35.71428 c 26.88094,19.64286 50.67371,38.25038 52.87277,41.35003 2.19906,3.09963 3.99829,8.78363 3.99829,12.63109 0,6.50826 -90.63903,164.8212 -99.35586,173.53803 -9.22197,9.22197 -16.29651,7.44071 -75.3138,-18.96283 l -58.40334,-26.12886 -15.18212,10.21683 c -14.89543,10.02383 -60.79183,33.07 -65.85894,33.07 -3.42483,0 -4.50006,6.35471 -11.84411,70 -3.4452,29.85714 -7.30995,57.10123 -8.58832,60.54243 -1.467,3.94897 -6.32637,7.36806 -13.17466,9.26977 -10.44851,2.90149 -182.90268,3.79226 -197.34928,1.01934 z M 552.54978,674.19034 c 35.65254,-10.75235 71.66391,-34.24875 93.41522,-60.95078 57.6142,-70.72745 53.11489,-172.949 -10.44405,-237.28242 -22.46683,-22.74058 -45.19437,-37.01438 -75.85575,-47.64037 -19.85171,-6.87982 -27.30205,-7.93218 -57.11542,-8.06753 -28.17966,-0.12794 -38.102,1.03074 -55.71429,6.50597 -62.81309,19.52707 -111.771,69.7363 -127.11815,130.36724 -5.52912,21.84346 -5.52912,64.09883 0,85.94229 17.09432,67.53334 74.18381,120.06168 147.31441,135.5448 17.77323,3.76291 66.78591,1.23014 85.51803,-4.4192 z"
       id="path855"
       inkscape:connector-curvature="0"
       transform="matrix(0.26458333,0,0,0.26458333,0,32.41665)" />
    <path
       style="opacity:1;fill:#ffffff;fill-opacity:0;stroke:#000000;stroke-width:0;stroke-linecap:square;stroke-linejoin:round;stroke-miterlimit:4;stroke-dasharray:none;stroke-opacity:1"
       d="m 401.76512,948.06799 c -3.57443,-0.68608 -8.29597,-4.04671 -10.49234,-7.46805 -2.299,-3.58126 -7.13212,-32.1196 -11.39092,-67.26069 -4.06863,-33.57203 -8.10151,-62.17917 -8.962,-63.57143 -0.86046,-1.39226 -2.88417,-2.53137 -4.49717,-2.53137 -4.96854,0 -42.3321,-19.25569 -61.13701,-31.50757 l -17.83434,-11.61952 -59.26411,26.3624 c -55.70569,24.77955 -59.69033,26.11718 -66.36267,22.27783 -8.31585,-4.78503 -109.22075,-175.00211 -109.253743,-184.30083 -0.02801,-7.89585 5.037385,-12.14154 58.550383,-49.07537 l 45.71429,-31.55131 v -47.8196 -47.8196 L 105.40692,414.05551 C 62.095975,381.94628 53.868708,374.67848 53.283741,368.01088 52.21884,355.87288 151.13148,189.78887 161.61605,186.11029 c 6.42819,-2.25537 16.73631,1.01506 65.09263,20.65178 31.60022,12.83234 58.78874,23.33152 60.41894,23.33152 1.63021,0 8.56552,-3.85394 15.41181,-8.56431 10.19138,-7.01185 56.89443,-31.23102 67.083,-34.78776 1.47097,-0.5135 6.0534,-27.93364 10.18317,-60.93364 4.1298,-33.000002 9.24246,-62.71473 11.36152,-66.032731 2.11903,-3.318 7.95774,-6.853714 12.97486,-7.857142 5.01714,-1.003428 49.50265,-1.824415 98.85671,-1.824415 97.38866,0 107.87391,1.401878 110.78329,14.811721 0.78954,3.639268 4.1102,30.402565 7.3792,59.473997 3.269,29.07143 6.50385,55.56455 7.18854,58.8736 0.89586,4.32957 9.04186,9.78595 29.05346,19.46074 15.29468,7.39435 34.09374,17.95975 41.77565,23.47866 l 13.96712,10.03438 58.96831,-26.23083 c 47.94949,-21.32934 60.27552,-25.77112 65.96392,-23.77061 5.24082,1.8431 19.44528,23.59987 56.6276,86.73571 27.2976,46.35152 50.91337,87.45332 52.47948,91.33738 1.81012,4.48911 1.8662,9.17317 0.154,12.85714 -1.48146,3.18737 -25.89394,21.8476 -54.24997,41.46711 -50.77274,35.12963 -51.52697,35.8028 -49.61937,44.28572 2.58068,11.47603 2.46146,47.65323 -0.22143,67.18528 l -2.15849,15.71429 48.87449,35.71428 c 26.88094,19.64286 50.67371,38.25038 52.87277,41.35003 2.19906,3.09963 3.99829,8.78363 3.99829,12.63109 0,6.50826 -90.63903,164.8212 -99.35586,173.53803 -9.22197,9.22197 -16.29651,7.44071 -75.3138,-18.96283 l -58.40334,-26.12886 -15.18212,10.21683 c -14.89543,10.02383 -60.79183,33.07 -65.85894,33.07 -3.42483,0 -4.50006,6.35471 -11.84411,70 -3.4452,29.85714 -7.30995,57.10123 -8.58832,60.54243 -1.467,3.94897 -6.32637,7.36806 -13.17466,9.26977 -10.44851,2.90149 -182.90268,3.79226 -197.34928,1.01934 z M 552.54978,674.19034 c 35.65254,-10.75235 71.66391,-34.24875 93.41522,-60.95078 57.6142,-70.72745 53.11489,-172.949 -10.44405,-237.28242 -22.46683,-22.74058 -45.19437,-37.01438 -75.85575,-47.64037 -19.85171,-6.87982 -27.30205,-7.93218 -57.11542,-8.06753 -28.17966,-0.12794 -38.102,1.03074 -55.71429,6.50597 -62.81309,19.52707 -111.771,69.7363 -127.11815,130.36724 -5.52912,21.84346 -5.52912,64.09883 0,85.94229 17.09432,67.53334 74.18381,120.06168 147.31441,135.5448 17.77323,3.76291 66.78591,1.23014 85.51803,-4.4192 z"
       id="path857"
       inkscape:connector-curvature="0"
       transform="matrix(0.26458333,0,0,0.26458333,0,32.41665)" />
    <path
       style="opacity:1;fill:#ffffff;fill-opacity:0;stroke:#000000;stroke-width:0;stroke-linecap:square;stroke-linejoin:round;stroke-miterlimit:4;stroke-dasharray:none;stroke-opacity:1"
       d="m 401.76512,948.06799 c -3.57443,-0.68608 -8.29597,-4.04671 -10.49234,-7.46805 -2.299,-3.58126 -7.13212,-32.1196 -11.39092,-67.26069 -4.06863,-33.57203 -8.10151,-62.17917 -8.962,-63.57143 -0.86046,-1.39226 -2.88417,-2.53137 -4.49717,-2.53137 -4.96854,0 -42.3321,-19.25569 -61.13701,-31.50757 l -17.83434,-11.61952 -59.26411,26.3624 c -55.70569,24.77955 -59.69033,26.11718 -66.36267,22.27783 -8.31585,-4.78503 -109.22075,-175.00211 -109.253743,-184.30083 -0.02801,-7.89585 5.037385,-12.14154 58.550383,-49.07537 l 45.71429,-31.55131 v -47.8196 -47.8196 L 105.40692,414.05551 C 62.095975,381.94628 53.868708,374.67848 53.283741,368.01088 52.21884,355.87288 151.13148,189.78887 161.61605,186.11029 c 6.42819,-2.25537 16.73631,1.01506 65.09263,20.65178 31.60022,12.83234 58.78874,23.33152 60.41894,23.33152 1.63021,0 8.56552,-3.85394 15.41181,-8.56431 10.19138,-7.01185 56.89443,-31.23102 67.083,-34.78776 1.47097,-0.5135 6.0534,-27.93364 10.18317,-60.93364 4.1298,-33.000002 9.24246,-62.71473 11.36152,-66.032731 2.11903,-3.318 7.95774,-6.853714 12.97486,-7.857142 5.01714,-1.003428 49.50265,-1.824415 98.85671,-1.824415 97.38866,0 107.87391,1.401878 110.78329,14.811721 0.78954,3.639268 4.1102,30.402565 7.3792,59.473997 3.269,29.07143 6.50385,55.56455 7.18854,58.8736 0.89586,4.32957 9.04186,9.78595 29.05346,19.46074 15.29468,7.39435 34.09374,17.95975 41.77565,23.47866 l 13.96712,10.03438 58.96831,-26.23083 c 47.94949,-21.32934 60.27552,-25.77112 65.96392,-23.77061 5.24082,1.8431 19.44528,23.59987 56.6276,86.73571 27.2976,46.35152 50.91337,87.45332 52.47948,91.33738 1.81012,4.48911 1.8662,9.17317 0.154,12.85714 -1.48146,3.18737 -25.89394,21.8476 -54.24997,41.46711 -50.77274,35.12963 -51.52697,35.8028 -49.61937,44.28572 2.58068,11.47603 2.46146,47.65323 -0.22143,67.18528 l -2.15849,15.71429 48.87449,35.71428 c 26.88094,19.64286 50.67371,38.25038 52.87277,41.35003 2.19906,3.09963 3.99829,8.78363 3.99829,12.63109 0,6.50826 -90.63903,164.8212 -99.35586,173.53803 -9.22197,9.22197 -16.29651,7.44071 -75.3138,-18.96283 l -58.40334,-26.12886 -15.18212,10.21683 c -14.89543,10.02383 -60.79183,33.07 -65.85894,33.07 -3.42483,0 -4.50006,6.35471 -11.84411,70 -3.4452,29.85714 -7.30995,57.10123 -8.58832,60.54243 -1.467,3.94897 -6.32637,7.36806 -13.17466,9.26977 -10.44851,2.90149 -182.90268,3.79226 -197.34928,1.01934 z M 552.54978,674.19034 c 35.65254,-10.75235 71.66391,-34.24875 93.41522,-60.95078 57.6142,-70.72745 53.11489,-172.949 -10.44405,-237.28242 -22.46683,-22.74058 -45.19437,-37.01438 -75.85575,-47.64037 -19.85171,-6.87982 -27.30205,-7.93218 -57.11542,-8.06753 -28.17966,-0.12794 -38.102,1.03074 -55.71429,6.50597 -62.81309,19.52707 -111.771,69.7363 -127.11815,130.36724 -5.52912,21.84346 -5.52912,64.09883 0,85.94229 17.09432,67.53334 74.18381,120.06168 147.31441,135.5448 17.77323,3.76291 66.78591,1.23014 85.51803,-4.4192 z"
       id="path859"
       inkscape:connector-curvature="0"
       transform="matrix(0.26458333,0,0,0.26458333,0,32.41665)" />
    <path
       style="opacity:1;fill:#ffffff;fill-opacity:0;stroke:#000000;stroke-width:0;stroke-linecap:square;stroke-linejoin:round;stroke-miterlimit:4;stroke-dasharray:none;stroke-opacity:1"
       d="m 401.76512,948.06799 c -3.57443,-0.68608 -8.29597,-4.04671 -10.49234,-7.46805 -2.299,-3.58126 -7.13212,-32.1196 -11.39092,-67.26069 -4.06863,-33.57203 -8.10151,-62.17917 -8.962,-63.57143 -0.86046,-1.39226 -2.88417,-2.53137 -4.49717,-2.53137 -4.96854,0 -42.3321,-19.25569 -61.13701,-31.50757 l -17.83434,-11.61952 -59.26411,26.3624 c -55.70569,24.77955 -59.69033,26.11718 -66.36267,22.27783 -8.31585,-4.78503 -109.22075,-175.00211 -109.253743,-184.30083 -0.02801,-7.89585 5.037385,-12.14154 58.550383,-49.07537 l 45.71429,-31.55131 v -47.8196 -47.8196 L 105.40692,414.05551 C 62.095975,381.94628 53.868708,374.67848 53.283741,368.01088 52.21884,355.87288 151.13148,189.78887 161.61605,186.11029 c 6.42819,-2.25537 16.73631,1.01506 65.09263,20.65178 31.60022,12.83234 58.78874,23.33152 60.41894,23.33152 1.63021,0 8.56552,-3.85394 15.41181,-8.56431 10.19138,-7.01185 56.89443,-31.23102 67.083,-34.78776 1.47097,-0.5135 6.0534,-27.93364 10.18317,-60.93364 4.1298,-33.000002 9.24246,-62.71473 11.36152,-66.032731 2.11903,-3.318 7.95774,-6.853714 12.97486,-7.857142 5.01714,-1.003428 49.50265,-1.824415 98.85671,-1.824415 97.38866,0 107.87391,1.401878 110.78329,14.811721 0.78954,3.639268 4.1102,30.402565 7.3792,59.473997 3.269,29.07143 6.50385,55.56455 7.18854,58.8736 0.89586,4.32957 9.04186,9.78595 29.05346,19.46074 15.29468,7.39435 34.09374,17.95975 41.77565,23.47866 l 13.96712,10.03438 58.96831,-26.23083 c 47.94949,-21.32934 60.27552,-25.77112 65.96392,-23.77061 5.24082,1.8431 19.44528,23.59987 56.6276,86.73571 27.2976,46.35152 50.91337,87.45332 52.47948,91.33738 1.81012,4.48911 1.8662,9.17317 0.154,12.85714 -1.48146,3.18737 -25.89394,21.8476 -54.24997,41.46711 -50.77274,35.12963 -51.52697,35.8028 -49.61937,44.28572 2.58068,11.47603 2.46146,47.65323 -0.22143,67.18528 l -2.15849,15.71429 48.87449,35.71428 c 26.88094,19.64286 50.67371,38.25038 52.87277,41.35003 2.19906,3.09963 3.99829,8.78363 3.99829,12.63109 0,6.50826 -90.63903,164.8212 -99.35586,173.53803 -9.22197,9.22197 -16.29651,7.44071 -75.3138,-18.96283 l -58.40334,-26.12886 -15.18212,10.21683 c -14.89543,10.02383 -60.79183,33.07 -65.85894,33.07 -3.42483,0 -4.50006,6.35471 -11.84411,70 -3.4452,29.85714 -7.30995,57.10123 -8.58832,60.54243 -1.467,3.94897 -6.32637,7.36806 -13.17466,9.26977 -10.44851,2.90149 -182.90268,3.79226 -197.34928,1.01934 z M 552.54978,674.19034 c 35.65254,-10.75235 71.66391,-34.24875 93.41522,-60.95078 57.6142,-70.72745 53.11489,-172.949 -10.44405,-237.28242 -22.46683,-22.74058 -45.19437,-37.01438 -75.85575,-47.64037 -19.85171,-6.87982 -27.30205,-7.93218 -57.11542,-8.06753 -28.17966,-0.12794 -38.102,1.03074 -55.71429,6.50597 -62.81309,19.52707 -111.771,69.7363 -127.11815,130.36724 -5.52912,21.84346 -5.52912,64.09883 0,85.94229 17.09432,67.53334 74.18381,120.06168 147.31441,135.5448 17.77323,3.76291 66.78591,1.23014 85.51803,-4.4192 z"
       id="path861"
       inkscape:connector-curvature="0"
       transform="matrix(0.26458333,0,0,0.26458333,0,32.41665)" />
    <path
       style="opacity:1;fill:#ffffff;fill-opacity:0;stroke:#000000;stroke-width:0;stroke-linecap:square;stroke-linejoin:round;stroke-miterlimit:4;stroke-dasharray:none;stroke-opacity:1"
       d="m 401.76512,948.06799 c -3.57443,-0.68608 -8.29597,-4.04671 -10.49234,-7.46805 -2.299,-3.58126 -7.13212,-32.1196 -11.39092,-67.26069 -4.06863,-33.57203 -8.10151,-62.17917 -8.962,-63.57143 -0.86046,-1.39226 -2.88417,-2.53137 -4.49717,-2.53137 -4.96854,0 -42.3321,-19.25569 -61.13701,-31.50757 l -17.83434,-11.61952 -59.26411,26.3624 c -55.70569,24.77955 -59.69033,26.11718 -66.36267,22.27783 -8.31585,-4.78503 -109.22075,-175.00211 -109.253743,-184.30083 -0.02801,-7.89585 5.037385,-12.14154 58.550383,-49.07537 l 45.71429,-31.55131 v -47.8196 -47.8196 L 105.40692,414.05551 C 62.095975,381.94628 53.868708,374.67848 53.283741,368.01088 52.21884,355.87288 151.13148,189.78887 161.61605,186.11029 c 6.42819,-2.25537 16.73631,1.01506 65.09263,20.65178 31.60022,12.83234 58.78874,23.33152 60.41894,23.33152 1.63021,0 8.56552,-3.85394 15.41181,-8.56431 10.19138,-7.01185 56.89443,-31.23102 67.083,-34.78776 1.47097,-0.5135 6.0534,-27.93364 10.18317,-60.93364 4.1298,-33.000002 9.24246,-62.71473 11.36152,-66.032731 2.11903,-3.318 7.95774,-6.853714 12.97486,-7.857142 5.01714,-1.003428 49.50265,-1.824415 98.85671,-1.824415 97.38866,0 107.87391,1.401878 110.78329,14.811721 0.78954,3.639268 4.1102,30.402565 7.3792,59.473997 3.269,29.07143 6.50385,55.56455 7.18854,58.8736 0.89586,4.32957 9.04186,9.78595 29.05346,19.46074 15.29468,7.39435 34.09374,17.95975 41.77565,23.47866 l 13.96712,10.03438 58.96831,-26.23083 c 47.94949,-21.32934 60.27552,-25.77112 65.96392,-23.77061 5.24082,1.8431 19.44528,23.59987 56.6276,86.73571 27.2976,46.35152 50.91337,87.45332 52.47948,91.33738 1.81012,4.48911 1.8662,9.17317 0.154,12.85714 -1.48146,3.18737 -25.89394,21.8476 -54.24997,41.46711 -50.77274,35.12963 -51.52697,35.8028 -49.61937,44.28572 2.58068,11.47603 2.46146,47.65323 -0.22143,67.18528 l -2.15849,15.71429 48.87449,35.71428 c 26.88094,19.64286 50.67371,38.25038 52.87277,41.35003 2.19906,3.09963 3.99829,8.78363 3.99829,12.63109 0,6.50826 -90.63903,164.8212 -99.35586,173.53803 -9.22197,9.22197 -16.29651,7.44071 -75.3138,-18.96283 l -58.40334,-26.12886 -15.18212,10.21683 c -14.89543,10.02383 -60.79183,33.07 -65.85894,33.07 -3.42483,0 -4.50006,6.35471 -11.84411,70 -3.4452,29.85714 -7.30995,57.10123 -8.58832,60.54243 -1.467,3.94897 -6.32637,7.36806 -13.17466,9.26977 -10.44851,2.90149 -182.90268,3.79226 -197.34928,1.01934 z M 552.54978,674.19034 c 35.65254,-10.75235 71.66391,-34.24875 93.41522,-60.95078 57.6142,-70.72745 53.11489,-172.949 -10.44405,-237.28242 -22.46683,-22.74058 -45.19437,-37.01438 -75.85575,-47.64037 -19.85171,-6.87982 -27.30205,-7.93218 -57.11542,-8.06753 -28.17966,-0.12794 -38.102,1.03074 -55.71429,6.50597 -62.81309,19.52707 -111.771,69.7363 -127.11815,130.36724 -5.52912,21.84346 -5.52912,64.09883 0,85.94229 17.09432,67.53334 74.18381,120.06168 147.31441,135.5448 17.77323,3.76291 66.78591,1.23014 85.51803,-4.4192 z"
       id="path863"
       inkscape:connector-curvature="0"
       transform="matrix(0.26458333,0,0,0.26458333,0,32.41665)" />
    <path
       style="opacity:1;fill:#ffffff;fill-opacity:0;stroke:#000000;stroke-width:0;stroke-linecap:square;stroke-linejoin:round;stroke-miterlimit:4;stroke-dasharray:none;stroke-opacity:1"
       d="m 401.76512,948.06799 c -3.57443,-0.68608 -8.29597,-4.04671 -10.49234,-7.46805 -2.299,-3.58126 -7.13212,-32.1196 -11.39092,-67.26069 -4.06863,-33.57203 -8.10151,-62.17917 -8.962,-63.57143 -0.86046,-1.39226 -2.88417,-2.53137 -4.49717,-2.53137 -4.96854,0 -42.3321,-19.25569 -61.13701,-31.50757 l -17.83434,-11.61952 -59.26411,26.3624 c -55.70569,24.77955 -59.69033,26.11718 -66.36267,22.27783 -8.31585,-4.78503 -109.22075,-175.00211 -109.253743,-184.30083 -0.02801,-7.89585 5.037385,-12.14154 58.550383,-49.07537 l 45.71429,-31.55131 v -47.8196 -47.8196 L 105.40692,414.05551 C 62.095975,381.94628 53.868708,374.67848 53.283741,368.01088 52.21884,355.87288 151.13148,189.78887 161.61605,186.11029 c 6.42819,-2.25537 16.73631,1.01506 65.09263,20.65178 31.60022,12.83234 58.78874,23.33152 60.41894,23.33152 1.63021,0 8.56552,-3.85394 15.41181,-8.56431 10.19138,-7.01185 56.89443,-31.23102 67.083,-34.78776 1.47097,-0.5135 6.0534,-27.93364 10.18317,-60.93364 4.1298,-33.000002 9.24246,-62.71473 11.36152,-66.032731 2.11903,-3.318 7.95774,-6.853714 12.97486,-7.857142 5.01714,-1.003428 49.50265,-1.824415 98.85671,-1.824415 97.38866,0 107.87391,1.401878 110.78329,14.811721 0.78954,3.639268 4.1102,30.402565 7.3792,59.473997 3.269,29.07143 6.50385,55.56455 7.18854,58.8736 0.89586,4.32957 9.04186,9.78595 29.05346,19.46074 15.29468,7.39435 34.09374,17.95975 41.77565,23.47866 l 13.96712,10.03438 58.96831,-26.23083 c 47.94949,-21.32934 60.27552,-25.77112 65.96392,-23.77061 5.24082,1.8431 19.44528,23.59987 56.6276,86.73571 27.2976,46.35152 50.91337,87.45332 52.47948,91.33738 1.81012,4.48911 1.8662,9.17317 0.154,12.85714 -1.48146,3.18737 -25.89394,21.8476 -54.24997,41.46711 -50.77274,35.12963 -51.52697,35.8028 -49.61937,44.28572 2.58068,11.47603 2.46146,47.65323 -0.22143,67.18528 l -2.15849,15.71429 48.87449,35.71428 c 26.88094,19.64286 50.67371,38.25038 52.87277,41.35003 2.19906,3.09963 3.99829,8.78363 3.99829,12.63109 0,6.50826 -90.63903,164.8212 -99.35586,173.53803 -9.22197,9.22197 -16.29651,7.44071 -75.3138,-18.96283 l -58.40334,-26.12886 -15.18212,10.21683 c -14.89543,10.02383 -60.79183,33.07 -65.85894,33.07 -3.42483,0 -4.50006,6.35471 -11.84411,70 -3.4452,29.85714 -7.30995,57.10123 -8.58832,60.54243 -1.467,3.94897 -6.32637,7.36806 -13.17466,9.26977 -10.44851,2.90149 -182.90268,3.79226 -197.34928,1.01934 z M 552.54978,674.19034 c 35.65254,-10.75235 71.66391,-34.24875 93.41522,-60.95078 57.6142,-70.72745 53.11489,-172.949 -10.44405,-237.28242 -22.46683,-22.74058 -45.19437,-37.01438 -75.85575,-47.64037 -19.85171,-6.87982 -27.30205,-7.93218 -57.11542,-8.06753 -28.17966,-0.12794 -38.102,1.03074 -55.71429,6.50597 -62.81309,19.52707 -111.771,69.7363 -127.11815,130.36724 -5.52912,21.84346 -5.52912,64.09883 0,85.94229 17.09432,67.53334 74.18381,120.06168 147.31441,135.5448 17.77323,3.76291 66.78591,1.23014 85.51803,-4.4192 z"
       id="path865"
       inkscape:connector-curvature="0"
       transform="matrix(0.26458333,0,0,0.26458333,0,32.41665)" />
    <path
       style="opacity:1;fill:#ffffff;fill-opacity:0;stroke:#000000;stroke-width:0;stroke-linecap:square;stroke-linejoin:round;stroke-miterlimit:4;stroke-dasharray:none;stroke-opacity:1"
       d="m 401.76512,948.06799 c -3.57443,-0.68608 -8.29597,-4.04671 -10.49234,-7.46805 -2.299,-3.58126 -7.13212,-32.1196 -11.39092,-67.26069 -4.06863,-33.57203 -8.10151,-62.17917 -8.962,-63.57143 -0.86046,-1.39226 -2.88417,-2.53137 -4.49717,-2.53137 -4.96854,0 -42.3321,-19.25569 -61.13701,-31.50757 l -17.83434,-11.61952 -59.26411,26.3624 c -55.70569,24.77955 -59.69033,26.11718 -66.36267,22.27783 -8.31585,-4.78503 -109.22075,-175.00211 -109.253743,-184.30083 -0.02801,-7.89585 5.037385,-12.14154 58.550383,-49.07537 l 45.71429,-31.55131 v -47.8196 -47.8196 L 105.40692,414.05551 C 62.095975,381.94628 53.868708,374.67848 53.283741,368.01088 52.21884,355.87288 151.13148,189.78887 161.61605,186.11029 c 6.42819,-2.25537 16.73631,1.01506 65.09263,20.65178 31.60022,12.83234 58.78874,23.33152 60.41894,23.33152 1.63021,0 8.56552,-3.85394 15.41181,-8.56431 10.19138,-7.01185 56.89443,-31.23102 67.083,-34.78776 1.47097,-0.5135 6.0534,-27.93364 10.18317,-60.93364 4.1298,-33.000002 9.24246,-62.71473 11.36152,-66.032731 2.11903,-3.318 7.95774,-6.853714 12.97486,-7.857142 5.01714,-1.003428 49.50265,-1.824415 98.85671,-1.824415 97.38866,0 107.87391,1.401878 110.78329,14.811721 0.78954,3.639268 4.1102,30.402565 7.3792,59.473997 3.269,29.07143 6.50385,55.56455 7.18854,58.8736 0.89586,4.32957 9.04186,9.78595 29.05346,19.46074 15.29468,7.39435 34.09374,17.95975 41.77565,23.47866 l 13.96712,10.03438 58.96831,-26.23083 c 47.94949,-21.32934 60.27552,-25.77112 65.96392,-23.77061 5.24082,1.8431 19.44528,23.59987 56.6276,86.73571 27.2976,46.35152 50.91337,87.45332 52.47948,91.33738 1.81012,4.48911 1.8662,9.17317 0.154,12.85714 -1.48146,3.18737 -25.89394,21.8476 -54.24997,41.46711 -50.77274,35.12963 -51.52697,35.8028 -49.61937,44.28572 2.58068,11.47603 2.46146,47.65323 -0.22143,67.18528 l -2.15849,15.71429 48.87449,35.71428 c 26.88094,19.64286 50.67371,38.25038 52.87277,41.35003 2.19906,3.09963 3.99829,8.78363 3.99829,12.63109 0,6.50826 -90.63903,164.8212 -99.35586,173.53803 -9.22197,9.22197 -16.29651,7.44071 -75.3138,-18.96283 l -58.40334,-26.12886 -15.18212,10.21683 c -14.89543,10.02383 -60.79183,33.07 -65.85894,33.07 -3.42483,0 -4.50006,6.35471 -11.84411,70 -3.4452,29.85714 -7.30995,57.10123 -8.58832,60.54243 -1.467,3.94897 -6.32637,7.36806 -13.17466,9.26977 -10.44851,2.90149 -182.90268,3.79226 -197.34928,1.01934 z M 552.54978,674.19034 c 35.65254,-10.75235 71.66391,-34.24875 93.41522,-60.95078 57.6142,-70.72745 53.11489,-172.949 -10.44405,-237.28242 -22.46683,-22.74058 -45.19437,-37.01438 -75.85575,-47.64037 -19.85171,-6.87982 -27.30205,-7.93218 -57.11542,-8.06753 -28.17966,-0.12794 -38.102,1.03074 -55.71429,6.50597 -62.81309,19.52707 -111.771,69.7363 -127.11815,130.36724 -5.52912,21.84346 -5.52912,64.09883 0,85.94229 17.09432,67.53334 74.18381,120.06168 147.31441,135.5448 17.77323,3.76291 66.78591,1.23014 85.51803,-4.4192 z"
       id="path867"
       inkscape:connector-curvature="0"
       transform="matrix(0.26458333,0,0,0.26458333,0,32.41665)" />
    <path
       style="opacity:1;fill:#ffffff;fill-opacity:0;stroke:#000000;stroke-width:0;stroke-linecap:square;stroke-linejoin:round;stroke-miterlimit:4;stroke-dasharray:none;stroke-opacity:1"
       d="m 401.76512,948.06799 c -3.57443,-0.68608 -8.29597,-4.04671 -10.49234,-7.46805 -2.299,-3.58126 -7.13212,-32.1196 -11.39092,-67.26069 -4.06863,-33.57203 -8.10151,-62.17917 -8.962,-63.57143 -0.86046,-1.39226 -2.88417,-2.53137 -4.49717,-2.53137 -4.96854,0 -42.3321,-19.25569 -61.13701,-31.50757 l -17.83434,-11.61952 -59.26411,26.3624 c -55.70569,24.77955 -59.69033,26.11718 -66.36267,22.27783 -8.31585,-4.78503 -109.22075,-175.00211 -109.253743,-184.30083 -0.02801,-7.89585 5.037385,-12.14154 58.550383,-49.07537 l 45.71429,-31.55131 v -47.8196 -47.8196 L 105.40692,414.05551 C 62.095975,381.94628 53.868708,374.67848 53.283741,368.01088 52.21884,355.87288 151.13148,189.78887 161.61605,186.11029 c 6.42819,-2.25537 16.73631,1.01506 65.09263,20.65178 31.60022,12.83234 58.78874,23.33152 60.41894,23.33152 1.63021,0 8.56552,-3.85394 15.41181,-8.56431 10.19138,-7.01185 56.89443,-31.23102 67.083,-34.78776 1.47097,-0.5135 6.0534,-27.93364 10.18317,-60.93364 4.1298,-33.000002 9.24246,-62.71473 11.36152,-66.032731 2.11903,-3.318 7.95774,-6.853714 12.97486,-7.857142 5.01714,-1.003428 49.50265,-1.824415 98.85671,-1.824415 97.38866,0 107.87391,1.401878 110.78329,14.811721 0.78954,3.639268 4.1102,30.402565 7.3792,59.473997 3.269,29.07143 6.50385,55.56455 7.18854,58.8736 0.89586,4.32957 9.04186,9.78595 29.05346,19.46074 15.29468,7.39435 34.09374,17.95975 41.77565,23.47866 l 13.96712,10.03438 58.96831,-26.23083 c 47.94949,-21.32934 60.27552,-25.77112 65.96392,-23.77061 5.24082,1.8431 19.44528,23.59987 56.6276,86.73571 27.2976,46.35152 50.91337,87.45332 52.47948,91.33738 1.81012,4.48911 1.8662,9.17317 0.154,12.85714 -1.48146,3.18737 -25.89394,21.8476 -54.24997,41.46711 -50.77274,35.12963 -51.52697,35.8028 -49.61937,44.28572 2.58068,11.47603 2.46146,47.65323 -0.22143,67.18528 l -2.15849,15.71429 48.87449,35.71428 c 26.88094,19.64286 50.67371,38.25038 52.87277,41.35003 2.19906,3.09963 3.99829,8.78363 3.99829,12.63109 0,6.50826 -90.63903,164.8212 -99.35586,173.53803 -9.22197,9.22197 -16.29651,7.44071 -75.3138,-18.96283 l -58.40334,-26.12886 -15.18212,10.21683 c -14.89543,10.02383 -60.79183,33.07 -65.85894,33.07 -3.42483,0 -4.50006,6.35471 -11.84411,70 -3.4452,29.85714 -7.30995,57.10123 -8.58832,60.54243 -1.467,3.94897 -6.32637,7.36806 -13.17466,9.26977 -10.44851,2.90149 -182.90268,3.79226 -197.34928,1.01934 z M 552.54978,674.19034 c 35.65254,-10.75235 71.66391,-34.24875 93.41522,-60.95078 57.6142,-70.72745 53.11489,-172.949 -10.44405,-237.28242 -22.46683,-22.74058 -45.19437,-37.01438 -75.85575,-47.64037 -19.85171,-6.87982 -27.30205,-7.93218 -57.11542,-8.06753 -28.17966,-0.12794 -38.102,1.03074 -55.71429,6.50597 -62.81309,19.52707 -111.771,69.7363 -127.11815,130.36724 -5.52912,21.84346 -5.52912,64.09883 0,85.94229 17.09432,67.53334 74.18381,120.06168 147.31441,135.5448 17.77323,3.76291 66.78591,1.23014 85.51803,-4.4192 z"
       id="path869"
       inkscape:connector-curvature="0"
       transform="matrix(0.26458333,0,0,0.26458333,0,32.41665)" />
    <path
       style="opacity:1;fill:#ffffff;fill-opacity:0;stroke:#000000;stroke-width:0;stroke-linecap:square;stroke-linejoin:round;stroke-miterlimit:4;stroke-dasharray:none;stroke-opacity:1"
       d="m 401.76512,948.06799 c -3.57443,-0.68608 -8.29597,-4.04671 -10.49234,-7.46805 -2.299,-3.58126 -7.13212,-32.1196 -11.39092,-67.26069 -4.06863,-33.57203 -8.10151,-62.17917 -8.962,-63.57143 -0.86046,-1.39226 -2.88417,-2.53137 -4.49717,-2.53137 -4.96854,0 -42.3321,-19.25569 -61.13701,-31.50757 l -17.83434,-11.61952 -59.26411,26.3624 c -55.70569,24.77955 -59.69033,26.11718 -66.36267,22.27783 -8.31585,-4.78503 -109.22075,-175.00211 -109.253743,-184.30083 -0.02801,-7.89585 5.037385,-12.14154 58.550383,-49.07537 l 45.71429,-31.55131 v -47.8196 -47.8196 L 105.40692,414.05551 C 62.095975,381.94628 53.868708,374.67848 53.283741,368.01088 52.21884,355.87288 151.13148,189.78887 161.61605,186.11029 c 6.42819,-2.25537 16.73631,1.01506 65.09263,20.65178 31.60022,12.83234 58.78874,23.33152 60.41894,23.33152 1.63021,0 8.56552,-3.85394 15.41181,-8.56431 10.19138,-7.01185 56.89443,-31.23102 67.083,-34.78776 1.47097,-0.5135 6.0534,-27.93364 10.18317,-60.93364 4.1298,-33.000002 9.24246,-62.71473 11.36152,-66.032731 2.11903,-3.318 7.95774,-6.853714 12.97486,-7.857142 5.01714,-1.003428 49.50265,-1.824415 98.85671,-1.824415 97.38866,0 107.87391,1.401878 110.78329,14.811721 0.78954,3.639268 4.1102,30.402565 7.3792,59.473997 3.269,29.07143 6.50385,55.56455 7.18854,58.8736 0.89586,4.32957 9.04186,9.78595 29.05346,19.46074 15.29468,7.39435 34.09374,17.95975 41.77565,23.47866 l 13.96712,10.03438 58.96831,-26.23083 c 47.94949,-21.32934 60.27552,-25.77112 65.96392,-23.77061 5.24082,1.8431 19.44528,23.59987 56.6276,86.73571 27.2976,46.35152 50.91337,87.45332 52.47948,91.33738 1.81012,4.48911 1.8662,9.17317 0.154,12.85714 -1.48146,3.18737 -25.89394,21.8476 -54.24997,41.46711 -50.77274,35.12963 -51.52697,35.8028 -49.61937,44.28572 2.58068,11.47603 2.46146,47.65323 -0.22143,67.18528 l -2.15849,15.71429 48.87449,35.71428 c 26.88094,19.64286 50.67371,38.25038 52.87277,41.35003 2.19906,3.09963 3.99829,8.78363 3.99829,12.63109 0,6.50826 -90.63903,164.8212 -99.35586,173.53803 -9.22197,9.22197 -16.29651,7.44071 -75.3138,-18.96283 l -58.40334,-26.12886 -15.18212,10.21683 c -14.89543,10.02383 -60.79183,33.07 -65.85894,33.07 -3.42483,0 -4.50006,6.35471 -11.84411,70 -3.4452,29.85714 -7.30995,57.10123 -8.58832,60.54243 -1.467,3.94897 -6.32637,7.36806 -13.17466,9.26977 -10.44851,2.90149 -182.90268,3.79226 -197.34928,1.01934 z M 552.54978,674.19034 c 35.65254,-10.75235 71.66391,-34.24875 93.41522,-60.95078 57.6142,-70.72745 53.11489,-172.949 -10.44405,-237.28242 -22.46683,-22.74058 -45.19437,-37.01438 -75.85575,-47.64037 -19.85171,-6.87982 -27.30205,-7.93218 -57.11542,-8.06753 -28.17966,-0.12794 -38.102,1.03074 -55.71429,6.50597 -62.81309,19.52707 -111.771,69.7363 -127.11815,130.36724 -5.52912,21.84346 -5.52912,64.09883 0,85.94229 17.09432,67.53334 74.18381,120.06168 147.31441,135.5448 17.77323,3.76291 66.78591,1.23014 85.51803,-4.4192 z"
       id="path871"
       inkscape:connector-curvature="0"
       transform="matrix(0.26458333,0,0,0.26458333,0,32.41665)" />
    <path
       style="opacity:1;fill:#ffffff;fill-opacity:0;stroke:#000000;stroke-width:0;stroke-linecap:square;stroke-linejoin:round;stroke-miterlimit:4;stroke-dasharray:none;stroke-opacity:1"
       d="m 401.76512,948.06799 c -3.57443,-0.68608 -8.29597,-4.04671 -10.49234,-7.46805 -2.299,-3.58126 -7.13212,-32.1196 -11.39092,-67.26069 -4.06863,-33.57203 -8.10151,-62.17917 -8.962,-63.57143 -0.86046,-1.39226 -2.88417,-2.53137 -4.49717,-2.53137 -4.96854,0 -42.3321,-19.25569 -61.13701,-31.50757 l -17.83434,-11.61952 -59.26411,26.3624 c -55.70569,24.77955 -59.69033,26.11718 -66.36267,22.27783 -8.31585,-4.78503 -109.22075,-175.00211 -109.253743,-184.30083 -0.02801,-7.89585 5.037385,-12.14154 58.550383,-49.07537 l 45.71429,-31.55131 v -47.8196 -47.8196 L 105.40692,414.05551 C 62.095975,381.94628 53.868708,374.67848 53.283741,368.01088 52.21884,355.87288 151.13148,189.78887 161.61605,186.11029 c 6.42819,-2.25537 16.73631,1.01506 65.09263,20.65178 31.60022,12.83234 58.78874,23.33152 60.41894,23.33152 1.63021,0 8.56552,-3.85394 15.41181,-8.56431 10.19138,-7.01185 56.89443,-31.23102 67.083,-34.78776 1.47097,-0.5135 6.0534,-27.93364 10.18317,-60.93364 4.1298,-33.000002 9.24246,-62.71473 11.36152,-66.032731 2.11903,-3.318 7.95774,-6.853714 12.97486,-7.857142 5.01714,-1.003428 49.50265,-1.824415 98.85671,-1.824415 97.38866,0 107.87391,1.401878 110.78329,14.811721 0.78954,3.639268 4.1102,30.402565 7.3792,59.473997 3.269,29.07143 6.50385,55.56455 7.18854,58.8736 0.89586,4.32957 9.04186,9.78595 29.05346,19.46074 15.29468,7.39435 34.09374,17.95975 41.77565,23.47866 l 13.96712,10.03438 58.96831,-26.23083 c 47.94949,-21.32934 60.27552,-25.77112 65.96392,-23.77061 5.24082,1.8431 19.44528,23.59987 56.6276,86.73571 27.2976,46.35152 50.91337,87.45332 52.47948,91.33738 1.81012,4.48911 1.8662,9.17317 0.154,12.85714 -1.48146,3.18737 -25.89394,21.8476 -54.24997,41.46711 -50.77274,35.12963 -51.52697,35.8028 -49.61937,44.28572 2.58068,11.47603 2.46146,47.65323 -0.22143,67.18528 l -2.15849,15.71429 48.87449,35.71428 c 26.88094,19.64286 50.67371,38.25038 52.87277,41.35003 2.19906,3.09963 3.99829,8.78363 3.99829,12.63109 0,6.50826 -90.63903,164.8212 -99.35586,173.53803 -9.22197,9.22197 -16.29651,7.44071 -75.3138,-18.96283 l -58.40334,-26.12886 -15.18212,10.21683 c -14.89543,10.02383 -60.79183,33.07 -65.85894,33.07 -3.42483,0 -4.50006,6.35471 -11.84411,70 -3.4452,29.85714 -7.30995,57.10123 -8.58832,60.54243 -1.467,3.94897 -6.32637,7.36806 -13.17466,9.26977 -10.44851,2.90149 -182.90268,3.79226 -197.34928,1.01934 z M 552.54978,674.19034 c 35.65254,-10.75235 71.66391,-34.24875 93.41522,-60.95078 57.6142,-70.72745 53.11489,-172.949 -10.44405,-237.28242 -22.46683,-22.74058 -45.19437,-37.01438 -75.85575,-47.64037 -19.85171,-6.87982 -27.30205,-7.93218 -57.11542,-8.06753 -28.17966,-0.12794 -38.102,1.03074 -55.71429,6.50597 -62.81309,19.52707 -111.771,69.7363 -127.11815,130.36724 -5.52912,21.84346 -5.52912,64.09883 0,85.94229 17.09432,67.53334 74.18381,120.06168 147.31441,135.5448 17.77323,3.76291 66.78591,1.23014 85.51803,-4.4192 z"
       id="path873"
       inkscape:connector-curvature="0"
       transform="matrix(0.26458333,0,0,0.26458333,0,32.41665)" />
    <path
       style="opacity:1;fill:#ffffff;fill-opacity:0;stroke:#000000;stroke-width:0;stroke-linecap:square;stroke-linejoin:round;stroke-miterlimit:4;stroke-dasharray:none;stroke-opacity:1"
       d="m 401.76512,948.06799 c -3.57443,-0.68608 -8.29597,-4.04671 -10.49234,-7.46805 -2.299,-3.58126 -7.13212,-32.1196 -11.39092,-67.26069 -4.06863,-33.57203 -8.10151,-62.17917 -8.962,-63.57143 -0.86046,-1.39226 -2.88417,-2.53137 -4.49717,-2.53137 -4.96854,0 -42.3321,-19.25569 -61.13701,-31.50757 l -17.83434,-11.61952 -59.26411,26.3624 c -55.70569,24.77955 -59.69033,26.11718 -66.36267,22.27783 -8.31585,-4.78503 -109.22075,-175.00211 -109.253743,-184.30083 -0.02801,-7.89585 5.037385,-12.14154 58.550383,-49.07537 l 45.71429,-31.55131 v -47.8196 -47.8196 L 105.40692,414.05551 C 62.095975,381.94628 53.868708,374.67848 53.283741,368.01088 52.21884,355.87288 151.13148,189.78887 161.61605,186.11029 c 6.42819,-2.25537 16.73631,1.01506 65.09263,20.65178 31.60022,12.83234 58.78874,23.33152 60.41894,23.33152 1.63021,0 8.56552,-3.85394 15.41181,-8.56431 10.19138,-7.01185 56.89443,-31.23102 67.083,-34.78776 1.47097,-0.5135 6.0534,-27.93364 10.18317,-60.93364 4.1298,-33.000002 9.24246,-62.71473 11.36152,-66.032731 2.11903,-3.318 7.95774,-6.853714 12.97486,-7.857142 5.01714,-1.003428 49.50265,-1.824415 98.85671,-1.824415 97.38866,0 107.87391,1.401878 110.78329,14.811721 0.78954,3.639268 4.1102,30.402565 7.3792,59.473997 3.269,29.07143 6.50385,55.56455 7.18854,58.8736 0.89586,4.32957 9.04186,9.78595 29.05346,19.46074 15.29468,7.39435 34.09374,17.95975 41.77565,23.47866 l 13.96712,10.03438 58.96831,-26.23083 c 47.94949,-21.32934 60.27552,-25.77112 65.96392,-23.77061 5.24082,1.8431 19.44528,23.59987 56.6276,86.73571 27.2976,46.35152 50.91337,87.45332 52.47948,91.33738 1.81012,4.48911 1.8662,9.17317 0.154,12.85714 -1.48146,3.18737 -25.89394,21.8476 -54.24997,41.46711 -50.77274,35.12963 -51.52697,35.8028 -49.61937,44.28572 2.58068,11.47603 2.46146,47.65323 -0.22143,67.18528 l -2.15849,15.71429 48.87449,35.71428 c 26.88094,19.64286 50.67371,38.25038 52.87277,41.35003 2.19906,3.09963 3.99829,8.78363 3.99829,12.63109 0,6.50826 -90.63903,164.8212 -99.35586,173.53803 -9.22197,9.22197 -16.29651,7.44071 -75.3138,-18.96283 l -58.40334,-26.12886 -15.18212,10.21683 c -14.89543,10.02383 -60.79183,33.07 -65.85894,33.07 -3.42483,0 -4.50006,6.35471 -11.84411,70 -3.4452,29.85714 -7.30995,57.10123 -8.58832,60.54243 -1.467,3.94897 -6.32637,7.36806 -13.17466,9.26977 -10.44851,2.90149 -182.90268,3.79226 -197.34928,1.01934 z M 552.54978,674.19034 c 35.65254,-10.75235 71.66391,-34.24875 93.41522,-60.95078 57.6142,-70.72745 53.11489,-172.949 -10.44405,-237.28242 -22.46683,-22.74058 -45.19437,-37.01438 -75.85575,-47.64037 -19.85171,-6.87982 -27.30205,-7.93218 -57.11542,-8.06753 -28.17966,-0.12794 -38.102,1.03074 -55.71429,6.50597 -62.81309,19.52707 -111.771,69.7363 -127.11815,130.36724 -5.52912,21.84346 -5.52912,64.09883 0,85.94229 17.09432,67.53334 74.18381,120.06168 147.31441,135.5448 17.77323,3.76291 66.78591,1.23014 85.51803,-4.4192 z"
       id="path875"
       inkscape:connector-curvature="0"
       transform="matrix(0.26458333,0,0,0.26458333,0,32.41665)" />
    <path
       style="opacity:1;fill:#ffffff;fill-opacity:0;stroke:#000000;stroke-width:0;stroke-linecap:square;stroke-linejoin:round;stroke-miterlimit:4;stroke-dasharray:none;stroke-opacity:1"
       d="m 401.76512,948.06799 c -3.57443,-0.68608 -8.29597,-4.04671 -10.49234,-7.46805 -2.299,-3.58126 -7.13212,-32.1196 -11.39092,-67.26069 -4.06863,-33.57203 -8.10151,-62.17917 -8.962,-63.57143 -0.86046,-1.39226 -2.88417,-2.53137 -4.49717,-2.53137 -4.96854,0 -42.3321,-19.25569 -61.13701,-31.50757 l -17.83434,-11.61952 -59.26411,26.3624 c -55.70569,24.77955 -59.69033,26.11718 -66.36267,22.27783 -8.31585,-4.78503 -109.22075,-175.00211 -109.253743,-184.30083 -0.02801,-7.89585 5.037385,-12.14154 58.550383,-49.07537 l 45.71429,-31.55131 v -47.8196 -47.8196 L 105.40692,414.05551 C 62.095975,381.94628 53.868708,374.67848 53.283741,368.01088 52.21884,355.87288 151.13148,189.78887 161.61605,186.11029 c 6.42819,-2.25537 16.73631,1.01506 65.09263,20.65178 31.60022,12.83234 58.78874,23.33152 60.41894,23.33152 1.63021,0 8.56552,-3.85394 15.41181,-8.56431 10.19138,-7.01185 56.89443,-31.23102 67.083,-34.78776 1.47097,-0.5135 6.0534,-27.93364 10.18317,-60.93364 4.1298,-33.000002 9.24246,-62.71473 11.36152,-66.032731 2.11903,-3.318 7.95774,-6.853714 12.97486,-7.857142 5.01714,-1.003428 49.50265,-1.824415 98.85671,-1.824415 97.38866,0 107.87391,1.401878 110.78329,14.811721 0.78954,3.639268 4.1102,30.402565 7.3792,59.473997 3.269,29.07143 6.50385,55.56455 7.18854,58.8736 0.89586,4.32957 9.04186,9.78595 29.05346,19.46074 15.29468,7.39435 34.09374,17.95975 41.77565,23.47866 l 13.96712,10.03438 58.96831,-26.23083 c 47.94949,-21.32934 60.27552,-25.77112 65.96392,-23.77061 5.24082,1.8431 19.44528,23.59987 56.6276,86.73571 27.2976,46.35152 50.91337,87.45332 52.47948,91.33738 1.81012,4.48911 1.8662,9.17317 0.154,12.85714 -1.48146,3.18737 -25.89394,21.8476 -54.24997,41.46711 -50.77274,35.12963 -51.52697,35.8028 -49.61937,44.28572 2.58068,11.47603 2.46146,47.65323 -0.22143,67.18528 l -2.15849,15.71429 48.87449,35.71428 c 26.88094,19.64286 50.67371,38.25038 52.87277,41.35003 2.19906,3.09963 3.99829,8.78363 3.99829,12.63109 0,6.50826 -90.63903,164.8212 -99.35586,173.53803 -9.22197,9.22197 -16.29651,7.44071 -75.3138,-18.96283 l -58.40334,-26.12886 -15.18212,10.21683 c -14.89543,10.02383 -60.79183,33.07 -65.85894,33.07 -3.42483,0 -4.50006,6.35471 -11.84411,70 -3.4452,29.85714 -7.30995,57.10123 -8.58832,60.54243 -1.467,3.94897 -6.32637,7.36806 -13.17466,9.26977 -10.44851,2.90149 -182.90268,3.79226 -197.34928,1.01934 z M 552.54978,674.19034 c 35.65254,-10.75235 71.66391,-34.24875 93.41522,-60.95078 57.6142,-70.72745 53.11489,-172.949 -10.44405,-237.28242 -22.46683,-22.74058 -45.19437,-37.01438 -75.85575,-47.64037 -19.85171,-6.87982 -27.30205,-7.93218 -57.11542,-8.06753 -28.17966,-0.12794 -38.102,1.03074 -55.71429,6.50597 -62.81309,19.52707 -111.771,69.7363 -127.11815,130.36724 -5.52912,21.84346 -5.52912,64.09883 0,85.94229 17.09432,67.53334 74.18381,120.06168 147.31441,135.5448 17.77323,3.76291 66.78591,1.23014 85.51803,-4.4192 z"
       id="path877"
       inkscape:connector-curvature="0"
       transform="matrix(0.26458333,0,0,0.26458333,0,32.41665)" />
    <path
       style="opacity:1;fill:#ffffff;fill-opacity:0;stroke:#000000;stroke-width:0;stroke-linecap:square;stroke-linejoin:round;stroke-miterlimit:4;stroke-dasharray:none;stroke-opacity:1"
       d="m 401.76512,948.06799 c -3.57443,-0.68608 -8.29597,-4.04671 -10.49234,-7.46805 -2.299,-3.58126 -7.13212,-32.1196 -11.39092,-67.26069 -4.06863,-33.57203 -8.10151,-62.17917 -8.962,-63.57143 -0.86046,-1.39226 -2.88417,-2.53137 -4.49717,-2.53137 -4.96854,0 -42.3321,-19.25569 -61.13701,-31.50757 l -17.83434,-11.61952 -59.26411,26.3624 c -55.70569,24.77955 -59.69033,26.11718 -66.36267,22.27783 -8.31585,-4.78503 -109.22075,-175.00211 -109.253743,-184.30083 -0.02801,-7.89585 5.037385,-12.14154 58.550383,-49.07537 l 45.71429,-31.55131 v -47.8196 -47.8196 L 105.40692,414.05551 C 62.095975,381.94628 53.868708,374.67848 53.283741,368.01088 52.21884,355.87288 151.13148,189.78887 161.61605,186.11029 c 6.42819,-2.25537 16.73631,1.01506 65.09263,20.65178 31.60022,12.83234 58.78874,23.33152 60.41894,23.33152 1.63021,0 8.56552,-3.85394 15.41181,-8.56431 10.19138,-7.01185 56.89443,-31.23102 67.083,-34.78776 1.47097,-0.5135 6.0534,-27.93364 10.18317,-60.93364 4.1298,-33.000002 9.24246,-62.71473 11.36152,-66.032731 2.11903,-3.318 7.95774,-6.853714 12.97486,-7.857142 5.01714,-1.003428 49.50265,-1.824415 98.85671,-1.824415 97.38866,0 107.87391,1.401878 110.78329,14.811721 0.78954,3.639268 4.1102,30.402565 7.3792,59.473997 3.269,29.07143 6.50385,55.56455 7.18854,58.8736 0.89586,4.32957 9.04186,9.78595 29.05346,19.46074 15.29468,7.39435 34.09374,17.95975 41.77565,23.47866 l 13.96712,10.03438 58.96831,-26.23083 c 47.94949,-21.32934 60.27552,-25.77112 65.96392,-23.77061 5.24082,1.8431 19.44528,23.59987 56.6276,86.73571 27.2976,46.35152 50.91337,87.45332 52.47948,91.33738 1.81012,4.48911 1.8662,9.17317 0.154,12.85714 -1.48146,3.18737 -25.89394,21.8476 -54.24997,41.46711 -50.77274,35.12963 -51.52697,35.8028 -49.61937,44.28572 2.58068,11.47603 2.46146,47.65323 -0.22143,67.18528 l -2.15849,15.71429 48.87449,35.71428 c 26.88094,19.64286 50.67371,38.25038 52.87277,41.35003 2.19906,3.09963 3.99829,8.78363 3.99829,12.63109 0,6.50826 -90.63903,164.8212 -99.35586,173.53803 -9.22197,9.22197 -16.29651,7.44071 -75.3138,-18.96283 l -58.40334,-26.12886 -15.18212,10.21683 c -14.89543,10.02383 -60.79183,33.07 -65.85894,33.07 -3.42483,0 -4.50006,6.35471 -11.84411,70 -3.4452,29.85714 -7.30995,57.10123 -8.58832,60.54243 -1.467,3.94897 -6.32637,7.36806 -13.17466,9.26977 -10.44851,2.90149 -182.90268,3.79226 -197.34928,1.01934 z M 552.54978,674.19034 c 35.65254,-10.75235 71.66391,-34.24875 93.41522,-60.95078 57.6142,-70.72745 53.11489,-172.949 -10.44405,-237.28242 -22.46683,-22.74058 -45.19437,-37.01438 -75.85575,-47.64037 -19.85171,-6.87982 -27.30205,-7.93218 -57.11542,-8.06753 -28.17966,-0.12794 -38.102,1.03074 -55.71429,6.50597 -62.81309,19.52707 -111.771,69.7363 -127.11815,130.36724 -5.52912,21.84346 -5.52912,64.09883 0,85.94229 17.09432,67.53334 74.18381,120.06168 147.31441,135.5448 17.77323,3.76291 66.78591,1.23014 85.51803,-4.4192 z"
       id="path879"
       inkscape:connector-curvature="0"
       transform="matrix(0.26458333,0,0,0.26458333,0,32.41665)" />
    <path
       style="opacity:1;fill:#ffffff;fill-opacity:0;stroke:#000000;stroke-width:0;stroke-linecap:square;stroke-linejoin:round;stroke-miterlimit:4;stroke-dasharray:none;stroke-opacity:1"
       d="m 401.76512,948.06799 c -3.57443,-0.68608 -8.29597,-4.04671 -10.49234,-7.46805 -2.299,-3.58126 -7.13212,-32.1196 -11.39092,-67.26069 -4.06863,-33.57203 -8.10151,-62.17917 -8.962,-63.57143 -0.86046,-1.39226 -2.88417,-2.53137 -4.49717,-2.53137 -4.96854,0 -42.3321,-19.25569 -61.13701,-31.50757 l -17.83434,-11.61952 -59.26411,26.3624 c -55.70569,24.77955 -59.69033,26.11718 -66.36267,22.27783 -8.31585,-4.78503 -109.22075,-175.00211 -109.253743,-184.30083 -0.02801,-7.89585 5.037385,-12.14154 58.550383,-49.07537 l 45.71429,-31.55131 v -47.8196 -47.8196 L 105.40692,414.05551 C 62.095975,381.94628 53.868708,374.67848 53.283741,368.01088 52.21884,355.87288 151.13148,189.78887 161.61605,186.11029 c 6.42819,-2.25537 16.73631,1.01506 65.09263,20.65178 31.60022,12.83234 58.78874,23.33152 60.41894,23.33152 1.63021,0 8.56552,-3.85394 15.41181,-8.56431 10.19138,-7.01185 56.89443,-31.23102 67.083,-34.78776 1.47097,-0.5135 6.0534,-27.93364 10.18317,-60.93364 4.1298,-33.000002 9.24246,-62.71473 11.36152,-66.032731 2.11903,-3.318 7.95774,-6.853714 12.97486,-7.857142 5.01714,-1.003428 49.50265,-1.824415 98.85671,-1.824415 97.38866,0 107.87391,1.401878 110.78329,14.811721 0.78954,3.639268 4.1102,30.402565 7.3792,59.473997 3.269,29.07143 6.50385,55.56455 7.18854,58.8736 0.89586,4.32957 9.04186,9.78595 29.05346,19.46074 15.29468,7.39435 34.09374,17.95975 41.77565,23.47866 l 13.96712,10.03438 58.96831,-26.23083 c 47.94949,-21.32934 60.27552,-25.77112 65.96392,-23.77061 5.24082,1.8431 19.44528,23.59987 56.6276,86.73571 27.2976,46.35152 50.91337,87.45332 52.47948,91.33738 1.81012,4.48911 1.8662,9.17317 0.154,12.85714 -1.48146,3.18737 -25.89394,21.8476 -54.24997,41.46711 -50.77274,35.12963 -51.52697,35.8028 -49.61937,44.28572 2.58068,11.47603 2.46146,47.65323 -0.22143,67.18528 l -2.15849,15.71429 48.87449,35.71428 c 26.88094,19.64286 50.67371,38.25038 52.87277,41.35003 2.19906,3.09963 3.99829,8.78363 3.99829,12.63109 0,6.50826 -90.63903,164.8212 -99.35586,173.53803 -9.22197,9.22197 -16.29651,7.44071 -75.3138,-18.96283 l -58.40334,-26.12886 -15.18212,10.21683 c -14.89543,10.02383 -60.79183,33.07 -65.85894,33.07 -3.42483,0 -4.50006,6.35471 -11.84411,70 -3.4452,29.85714 -7.30995,57.10123 -8.58832,60.54243 -1.467,3.94897 -6.32637,7.36806 -13.17466,9.26977 -10.44851,2.90149 -182.90268,3.79226 -197.34928,1.01934 z M 552.54978,674.19034 c 35.65254,-10.75235 71.66391,-34.24875 93.41522,-60.95078 57.6142,-70.72745 53.11489,-172.949 -10.44405,-237.28242 -22.46683,-22.74058 -45.19437,-37.01438 -75.85575,-47.64037 -19.85171,-6.87982 -27.30205,-7.93218 -57.11542,-8.06753 -28.17966,-0.12794 -38.102,1.03074 -55.71429,6.50597 -62.81309,19.52707 -111.771,69.7363 -127.11815,130.36724 -5.52912,21.84346 -5.52912,64.09883 0,85.94229 17.09432,67.53334 74.18381,120.06168 147.31441,135.5448 17.77323,3.76291 66.78591,1.23014 85.51803,-4.4192 z"
       id="path881"
       inkscape:connector-curvature="0"
       transform="matrix(0.26458333,0,0,0.26458333,0,32.41665)" />
    <path
       style="opacity:1;fill:#ffffff;fill-opacity:0;stroke:#000000;stroke-width:0;stroke-linecap:square;stroke-linejoin:round;stroke-miterlimit:4;stroke-dasharray:none;stroke-opacity:1"
       d="m 401.76512,948.06799 c -3.57443,-0.68608 -8.29597,-4.04671 -10.49234,-7.46805 -2.299,-3.58126 -7.13212,-32.1196 -11.39092,-67.26069 -4.06863,-33.57203 -8.10151,-62.17917 -8.962,-63.57143 -0.86046,-1.39226 -2.88417,-2.53137 -4.49717,-2.53137 -4.96854,0 -42.3321,-19.25569 -61.13701,-31.50757 l -17.83434,-11.61952 -59.26411,26.3624 c -55.70569,24.77955 -59.69033,26.11718 -66.36267,22.27783 -8.31585,-4.78503 -109.22075,-175.00211 -109.253743,-184.30083 -0.02801,-7.89585 5.037385,-12.14154 58.550383,-49.07537 l 45.71429,-31.55131 v -47.8196 -47.8196 L 105.40692,414.05551 C 62.095975,381.94628 53.868708,374.67848 53.283741,368.01088 52.21884,355.87288 151.13148,189.78887 161.61605,186.11029 c 6.42819,-2.25537 16.73631,1.01506 65.09263,20.65178 31.60022,12.83234 58.78874,23.33152 60.41894,23.33152 1.63021,0 8.56552,-3.85394 15.41181,-8.56431 10.19138,-7.01185 56.89443,-31.23102 67.083,-34.78776 1.47097,-0.5135 6.0534,-27.93364 10.18317,-60.93364 4.1298,-33.000002 9.24246,-62.71473 11.36152,-66.032731 2.11903,-3.318 7.95774,-6.853714 12.97486,-7.857142 5.01714,-1.003428 49.50265,-1.824415 98.85671,-1.824415 97.38866,0 107.87391,1.401878 110.78329,14.811721 0.78954,3.639268 4.1102,30.402565 7.3792,59.473997 3.269,29.07143 6.50385,55.56455 7.18854,58.8736 0.89586,4.32957 9.04186,9.78595 29.05346,19.46074 15.29468,7.39435 34.09374,17.95975 41.77565,23.47866 l 13.96712,10.03438 58.96831,-26.23083 c 47.94949,-21.32934 60.27552,-25.77112 65.96392,-23.77061 5.24082,1.8431 19.44528,23.59987 56.6276,86.73571 27.2976,46.35152 50.91337,87.45332 52.47948,91.33738 1.81012,4.48911 1.8662,9.17317 0.154,12.85714 -1.48146,3.18737 -25.89394,21.8476 -54.24997,41.46711 -50.77274,35.12963 -51.52697,35.8028 -49.61937,44.28572 2.58068,11.47603 2.46146,47.65323 -0.22143,67.18528 l -2.15849,15.71429 48.87449,35.71428 c 26.88094,19.64286 50.67371,38.25038 52.87277,41.35003 2.19906,3.09963 3.99829,8.78363 3.99829,12.63109 0,6.50826 -90.63903,164.8212 -99.35586,173.53803 -9.22197,9.22197 -16.29651,7.44071 -75.3138,-18.96283 l -58.40334,-26.12886 -15.18212,10.21683 c -14.89543,10.02383 -60.79183,33.07 -65.85894,33.07 -3.42483,0 -4.50006,6.35471 -11.84411,70 -3.4452,29.85714 -7.30995,57.10123 -8.58832,60.54243 -1.467,3.94897 -6.32637,7.36806 -13.17466,9.26977 -10.44851,2.90149 -182.90268,3.79226 -197.34928,1.01934 z M 552.54978,674.19034 c 35.65254,-10.75235 71.66391,-34.24875 93.41522,-60.95078 57.6142,-70.72745 53.11489,-172.949 -10.44405,-237.28242 -22.46683,-22.74058 -45.19437,-37.01438 -75.85575,-47.64037 -19.85171,-6.87982 -27.30205,-7.93218 -57.11542,-8.06753 -28.17966,-0.12794 -38.102,1.03074 -55.71429,6.50597 -62.81309,19.52707 -111.771,69.7363 -127.11815,130.36724 -5.52912,21.84346 -5.52912,64.09883 0,85.94229 17.09432,67.53334 74.18381,120.06168 147.31441,135.5448 17.77323,3.76291 66.78591,1.23014 85.51803,-4.4192 z"
       id="path883"
       inkscape:connector-curvature="0"
       transform="matrix(0.26458333,0,0,0.26458333,0,32.41665)" />
    <path
       style="opacity:1;fill:#ffffff;fill-opacity:0;stroke:#000000;stroke-width:0;stroke-linecap:square;stroke-linejoin:round;stroke-miterlimit:4;stroke-dasharray:none;stroke-opacity:1"
       d="m 401.76512,948.06799 c -3.57443,-0.68608 -8.29597,-4.04671 -10.49234,-7.46805 -2.299,-3.58126 -7.13212,-32.1196 -11.39092,-67.26069 -4.06863,-33.57203 -8.10151,-62.17917 -8.962,-63.57143 -0.86046,-1.39226 -2.88417,-2.53137 -4.49717,-2.53137 -4.96854,0 -42.3321,-19.25569 -61.13701,-31.50757 l -17.83434,-11.61952 -59.26411,26.3624 c -55.70569,24.77955 -59.69033,26.11718 -66.36267,22.27783 -8.31585,-4.78503 -109.22075,-175.00211 -109.253743,-184.30083 -0.02801,-7.89585 5.037385,-12.14154 58.550383,-49.07537 l 45.71429,-31.55131 v -47.8196 -47.8196 L 105.40692,414.05551 C 62.095975,381.94628 53.868708,374.67848 53.283741,368.01088 52.21884,355.87288 151.13148,189.78887 161.61605,186.11029 c 6.42819,-2.25537 16.73631,1.01506 65.09263,20.65178 31.60022,12.83234 58.78874,23.33152 60.41894,23.33152 1.63021,0 8.56552,-3.85394 15.41181,-8.56431 10.19138,-7.01185 56.89443,-31.23102 67.083,-34.78776 1.47097,-0.5135 6.0534,-27.93364 10.18317,-60.93364 4.1298,-33.000002 9.24246,-62.71473 11.36152,-66.032731 2.11903,-3.318 7.95774,-6.853714 12.97486,-7.857142 5.01714,-1.003428 49.50265,-1.824415 98.85671,-1.824415 97.38866,0 107.87391,1.401878 110.78329,14.811721 0.78954,3.639268 4.1102,30.402565 7.3792,59.473997 3.269,29.07143 6.50385,55.56455 7.18854,58.8736 0.89586,4.32957 9.04186,9.78595 29.05346,19.46074 15.29468,7.39435 34.09374,17.95975 41.77565,23.47866 l 13.96712,10.03438 58.96831,-26.23083 c 47.94949,-21.32934 60.27552,-25.77112 65.96392,-23.77061 5.24082,1.8431 19.44528,23.59987 56.6276,86.73571 27.2976,46.35152 50.91337,87.45332 52.47948,91.33738 1.81012,4.48911 1.8662,9.17317 0.154,12.85714 -1.48146,3.18737 -25.89394,21.8476 -54.24997,41.46711 -50.77274,35.12963 -51.52697,35.8028 -49.61937,44.28572 2.58068,11.47603 2.46146,47.65323 -0.22143,67.18528 l -2.15849,15.71429 48.87449,35.71428 c 26.88094,19.64286 50.67371,38.25038 52.87277,41.35003 2.19906,3.09963 3.99829,8.78363 3.99829,12.63109 0,6.50826 -90.63903,164.8212 -99.35586,173.53803 -9.22197,9.22197 -16.29651,7.44071 -75.3138,-18.96283 l -58.40334,-26.12886 -15.18212,10.21683 c -14.89543,10.02383 -60.79183,33.07 -65.85894,33.07 -3.42483,0 -4.50006,6.35471 -11.84411,70 -3.4452,29.85714 -7.30995,57.10123 -8.58832,60.54243 -1.467,3.94897 -6.32637,7.36806 -13.17466,9.26977 -10.44851,2.90149 -182.90268,3.79226 -197.34928,1.01934 z M 552.54978,674.19034 c 35.65254,-10.75235 71.66391,-34.24875 93.41522,-60.95078 57.6142,-70.72745 53.11489,-172.949 -10.44405,-237.28242 -22.46683,-22.74058 -45.19437,-37.01438 -75.85575,-47.64037 -19.85171,-6.87982 -27.30205,-7.93218 -57.11542,-8.06753 -28.17966,-0.12794 -38.102,1.03074 -55.71429,6.50597 -62.81309,19.52707 -111.771,69.7363 -127.11815,130.36724 -5.52912,21.84346 -5.52912,64.09883 0,85.94229 17.09432,67.53334 74.18381,120.06168 147.31441,135.5448 17.77323,3.76291 66.78591,1.23014 85.51803,-4.4192 z"
       id="path885"
       inkscape:connector-curvature="0"
       transform="matrix(0.26458333,0,0,0.26458333,0,32.41665)" />
    <path
       id="path2365"
       d="m 132.29144,45.64627 c -65.483968,0 -119.062273,53.577866 -119.062273,119.06227 0,65.48441 53.578305,119.06228 119.062273,119.06228 65.48438,0 119.06273,-53.57787 119.06273,-119.06228 v -11.90609 c -7.14375,10.7154 -14.13901,20.31479 -20.09205,28.64923 -4.76236,26.19359 -19.1988,48.89022 -39.43934,64.36796 -1.19242,-3.57299 -2.52884,-8.33399 -3.72126,-11.90609 -1.19243,-4.76235 -2.08337,-9.74834 -4.46417,-14.51069 -1.19243,-4.76235 -2.45685,-9.45044 -4.83706,-13.02254 -1.19243,-1.1925 -3.57323,-2.529 -5.95304,-3.7215 -8.33446,-2.3805 -18.97557,1.2645 -24.92865,-7.06904 -2.38035,-3.573 -2.67733,-7.14375 -1.48941,-11.90655 2.38035,-3.57299 3.57323,-7.21799 5.95308,-10.79009 2.38035,-4.76235 6.25047,-10.41794 7.44118,-16.37099 -9.52468,-14.28749 -19.04986,-31.03063 -23.81218,-46.50882 h -1.48941 c -1.18792,0 -1.03943,0.09 -2.23186,-1.116 -2.38035,-2.3805 -3.42473,-8.33444 -2.23186,-11.906092 0,-5.953047 3.42429,-9.674094 2.23186,-15.62714 0,-1.1925 -1.11593,-10.790094 -1.11593,-10.790094 -3.57277,0 -9.74832,0 -8.55765,-5.953046 v -1.115999 h 9.67367 5.95349 c 2.38035,-7.143746 7.21799,-13.096792 10.78964,-17.859139 z m 71.43746,0 c -26.19362,0 -47.62482,21.431236 -47.62482,47.62482 0,26.19358 47.62482,83.34355 47.62482,83.34355 0,0 47.62527,-57.14997 47.62527,-83.34355 0,-26.193584 -21.43125,-47.62482 -47.62527,-47.62482 z m 0,29.765231 c 9.52513,0 17.85955,8.334445 17.85955,17.859589 0,9.52514 -8.33442,17.85914 -17.85955,17.85914 -9.52473,0 -17.85915,-8.334 -17.85915,-17.85914 0,-9.525144 8.33442,-17.859589 17.85915,-17.859589 z M 84.666622,82.480997 c 4.315678,-0.315 8.33442,-0.09 11.90607,1.115999 3.572778,1.192499 7.292688,3.572998 9.674118,5.953046 2.38035,2.380499 5.95304,6.101997 5.95304,9.674094 0,1.192504 -0.31498,2.231994 -1.48941,2.231994 -1.19242,1.1925 -2.15986,1.4895 -3.34824,1.4895 -3.57277,0 -7.29224,-0.315 -9.673623,-1.4895 -1.192425,-1.19249 -3.572775,-3.275993 -5.95308,-4.463992 -5.953035,-2.380499 -16.668885,13.096792 -17.859555,17.859142 -1.192425,3.57299 -1.11593,11.83184 4.837015,13.02254 3.572775,0 11.757174,-7.2927 14.138559,-9.67365 2.38035,-1.19249 3.573225,-2.15999 5.953035,-3.34799 9.525139,-1.1925 16.966359,6.92009 19.347749,15.25454 2.38035,9.52469 -14.43644,16.59419 -21.580193,18.97513 -2.38035,1.1925 -3.573225,-1.19249 -5.953035,0 -5.953035,2.3805 -13.02254,10.7901 -13.02254,16.74314 0,5.9535 -1.412911,11.90655 -2.605336,17.85959 -1.192424,0 -2.231859,-1.116 -2.231859,-1.116 v -2.23199 c 0,-3.573 -1.26442,-7.2927 -4.83706,-9.67365 -1.192425,0 -1.039435,-1.116 -2.23186,-1.116 -3.573225,-1.1925 -7.217995,-4.6881 -10.790095,-1.116 -2.38035,2.3805 -4.836565,5.72985 -4.836565,9.3015 0,1.1925 -0.09,2.529 1.115929,3.72149 2.38035,1.1925 5.060247,0 7.441677,0 1.192425,0 2.159864,2.16 3.347789,3.348 2.38035,3.573 3.793711,9.6741 8.557651,9.6741 h 8.185479 15.627156 c 3.572775,1.1925 9.524682,2.45699 11.906112,4.83659 1.19243,2.3805 1.03944,4.6881 2.23186,7.0695 4.76232,5.95304 12.94785,5.8041 20.0916,8.18549 2.38035,1.1925 3.72171,2.457 3.72171,4.83705 0,3.573 -1.03943,8.33445 -2.23186,11.90609 -1.18792,3.573 -2.45684,8.4087 -4.83661,10.7901 -2.38035,2.38049 -4.68812,3.64499 -7.0695,4.83704 -4.76237,2.3805 -7.29269,7.218 -9.67363,10.78965 0,0 -1.04393,2.16 -2.23186,3.34799 -9.525177,-2.38049 -18.082783,-5.95169 -26.417248,-11.90474 v -2.232 c -1.187925,-4.76279 -2.155365,-8.33444 -3.348239,-11.90654 -2.38035,-5.95305 -6.250917,-13.02209 -7.441632,-18.97514 0,-5.95349 1.340916,-11.98079 -2.231859,-16.74359 -3.572775,-5.95304 -13.02254,-6.10154 -18.975575,-9.67364 -4.762815,-4.76235 -10.86479,-9.30149 -15.627155,-15.25499 v -9.67365 c 0,-32.14707 15.627155,-60.57311 39.43934,-79.622945 4.167188,-1.192499 8.706592,-2.308498 13.02254,-2.605498 z"
       inkscape:connector-curvature="0"
       style="stroke-width:1.32291667;fill:#ffffff;fill-opacity:1;stroke:#000000;stroke-opacity:1;stroke-miterlimit:4;stroke-dasharray:none" />
  </g>
</svg>
