<?xml version="1.0" encoding="UTF-8" standalone="no"?>
<!-- Created with Inkscape (http://www.inkscape.org/) -->

<svg
   xmlns:dc="http://purl.org/dc/elements/1.1/"
   xmlns:cc="http://creativecommons.org/ns#"
   xmlns:rdf="http://www.w3.org/1999/02/22-rdf-syntax-ns#"
   xmlns:svg="http://www.w3.org/2000/svg"
   xmlns="http://www.w3.org/2000/svg"
   xmlns:sodipodi="http://sodipodi.sourceforge.net/DTD/sodipodi-0.dtd"
   xmlns:inkscape="http://www.inkscape.org/namespaces/inkscape"
   width="1000"
   height="1000"
   viewBox="0 0 264.58333 264.58334"
   version="1.1"
   id="svg4156"
   inkscape:version="0.92.2 (5c3e80d, 2017-08-06)"
   sodipodi:docname="NOgps.svg">
  <defs
     id="defs4150" />
  <sodipodi:namedview
     id="base"
     pagecolor="#ffffff"
     bordercolor="#666666"
     borderopacity="1.0"
     inkscape:pageopacity="0.0"
     inkscape:pageshadow="2"
     inkscape:zoom="0.35355339"
     inkscape:cx="582.46783"
     inkscape:cy="450.19019"
     inkscape:document-units="mm"
     inkscape:current-layer="layer1"
     showgrid="false"
     units="px"
     inkscape:window-width="1366"
     inkscape:window-height="705"
     inkscape:window-x="-8"
     inkscape:window-y="-8"
     inkscape:window-maximized="1" />
  <metadata
     id="metadata4153">
    <rdf:RDF>
      <cc:Work
         rdf:about="">
        <dc:format>image/svg+xml</dc:format>
        <dc:type
           rdf:resource="http://purl.org/dc/dcmitype/StillImage" />
        <dc:title></dc:title>
      </cc:Work>
    </rdf:RDF>
  </metadata>
  <g
     inkscape:label="Layer 1"
     inkscape:groupmode="layer"
     id="layer1"
     transform="translate(0,-32.41665)">
    <path
       id="path4712"
       overflow="visible"
       d="m 126.04096,45.645815 c -1.2618,0 -2.38356,0.444599 -3.2742,1.339197 l -37.802362,37.80226 c -0.894601,0.894598 -1.339201,2.161075 -1.339201,3.423052 0,1.261798 0.4446,2.383555 1.339201,3.274193 l 24.258972,24.407773 c 14.88295,-14.88273 35.25681,-35.09831 44.64849,-44.49951 L 129.46403,46.985012 c -0.891,-0.894598 -2.1609,-1.339197 -3.42307,-1.339197 z m 51.64348,22.472952 c -4.38804,7.2e-4 -8.67025,1.526397 -11.90629,4.76261 -0.7812,0.790198 -38.12384,38.123743 -57.7453,57.745133 -0.8946,0.891 -1.4886,2.1609 -1.4886,3.42306 0,1.26179 0.5922,2.37887 1.4886,3.27419 l 5.50657,5.50655 c -8.65801,-1.0062 -16.238894,0.612 -20.984777,5.35787 a 4.7629793,4.7629661 0 0 0 0,6.69724 l 13.394527,13.39449 c -1.359,2.46726 -2.23236,5.14115 -2.23236,8.03681 0,4.52429 1.71,8.85454 4.9113,12.05493 3.19573,3.20039 7.53067,4.91129 12.05515,4.91129 2.89548,0 5.56813,-0.873 8.03665,-2.23235 l 13.39453,13.39449 a 4.7629793,4.7629661 0 0 0 6.69726,0 c 4.74948,-4.74569 6.36264,-12.32584 5.35788,-20.98472 l 5.50657,5.50673 c 0.9288,0.9288 2.05506,1.4886 3.2742,1.4886 1.2186,0 2.48958,-0.5544 3.42306,-1.4886 0,0 57.05482,-57.05952 57.74548,-57.74532 3.2004,-3.19553 5.06016,-7.38178 5.06016,-11.90625 0,-4.52429 -1.85976,-8.8594 -5.06016,-12.05494 l -34.3793,-34.379203 c -3.20041,-3.200393 -7.66711,-4.76315 -12.05515,-4.76261 z m 47.92269,75.009263 c -10.12987,10.12498 -32.47904,32.63267 -44.49963,44.64836 l 24.25898,24.25891 c 0.9288,0.9288 2.20392,1.3392 3.42306,1.3392 1.2186,0 2.49426,-0.4104 3.42306,-1.3392 l 37.80237,-37.80226 c 0.8946,-0.891 1.3392,-2.00735 1.3392,-3.27419 0,-1.2672 -0.4446,-2.53242 -1.3392,-3.42305 z m -117.72314,9.07846 c 1.422,-0.09 2.97198,-0.036 4.61359,0.144 6.56658,0.7632 14.29399,3.87593 21.28249,10.86441 6.98814,6.98597 10.10251,14.71569 10.86445,21.28244 0.3816,3.28337 0.126,6.17795 -0.4464,8.4832 l -11.60857,-11.46039 -17.11531,-17.11509 -11.45971,-11.60853 c 1.152,-0.2898 2.4471,-0.5094 3.86946,-0.5958 z m -90.487496,60.42407 a 4.7629793,4.7629661 0 0 0 -4.167183,4.76261 c 0,36.56386 29.81324,66.3772 66.377383,66.3772 a 4.7629793,4.7629661 0 1 0 0,-9.52504 c -31.41614,0 -56.852497,-25.43629 -56.852497,-56.85216 a 4.7629793,4.7629661 0 0 0 -5.357703,-4.76261 z m 34.825703,0 a 4.7629793,4.7629661 0 0 0 -3.869463,4.76261 c 0,17.1374 14.111289,31.25387 31.25396,31.25387 a 4.7629793,4.7629661 0 1 0 0,-9.52504 c -11.994487,0 -21.729074,-9.73906 -21.729074,-21.72883 a 4.7629793,4.7629661 0 0 0 -5.208843,-4.76261 4.7629793,4.7629661 0 0 0 -0.4464,0 z"
       style="line-height:normal;font-family:'Bitstream Vera Sans';-inkscape-font-specification:'Bitstream Vera Sans';text-indent:0;text-align:start;text-transform:none;overflow:visible;fill:#ffffff;fill-opacity:1;stroke:#000000;stroke-width:1.32291663;stroke-miterlimit:4;stroke-dasharray:none;stroke-opacity:1;enable-background:accumulate"
       inkscape:connector-curvature="0" />
    <circle
       style="opacity:1;fill:none;fill-opacity:1;stroke:#ff0000;stroke-width:12.67489147;stroke-linecap:square;stroke-linejoin:round;stroke-miterlimit:4;stroke-dasharray:none;stroke-opacity:1"
       id="path4723"
       cx="132.29166"
       cy="164.70831"
       r="125.95422" />
    <path
       style="fill:none;stroke:#ff0000;stroke-width:13.22916667;stroke-linecap:butt;stroke-linejoin:miter;stroke-opacity:1;stroke-miterlimit:4;stroke-dasharray:none"
       d="M 46.397989,71.745226 217.77121,259.58225"
       id="path4725"
       inkscape:connector-curvature="0" />
  </g>
</svg>
