<?xml version="1.0" encoding="UTF-8" standalone="no"?>
<!-- Created with Inkscape (http://www.inkscape.org/) -->

<svg
   xmlns:osb="http://www.openswatchbook.org/uri/2009/osb"
   xmlns:dc="http://purl.org/dc/elements/1.1/"
   xmlns:cc="http://creativecommons.org/ns#"
   xmlns:rdf="http://www.w3.org/1999/02/22-rdf-syntax-ns#"
   xmlns:svg="http://www.w3.org/2000/svg"
   xmlns="http://www.w3.org/2000/svg"
   xmlns:sodipodi="http://sodipodi.sourceforge.net/DTD/sodipodi-0.dtd"
   xmlns:inkscape="http://www.inkscape.org/namespaces/inkscape"
   width="1000"
   height="1000"
   viewBox="0 0 264.58333 264.58334"
   version="1.1"
   id="svg8"
   inkscape:version="0.92.2 (5c3e80d, 2017-08-06)"
   sodipodi:docname="settingsnew.svg">
  <defs
     id="defs2">
    <linearGradient
       id="linearGradient2335"
       osb:paint="solid">
      <stop
         style="stop-color:#ffffff;stop-opacity:1;"
         offset="0"
         id="stop2333" />
    </linearGradient>
  </defs>
  <sodipodi:namedview
     id="base"
     pagecolor="#ffffff"
     bordercolor="#666666"
     borderopacity="1.0"
     inkscape:pageopacity="0.0"
     inkscape:pageshadow="2"
     inkscape:zoom="0.35"
     inkscape:cx="447.41895"
     inkscape:cy="474.47784"
     inkscape:document-units="mm"
     inkscape:current-layer="layer1"
     showgrid="false"
     units="px"
     inkscape:window-width="1366"
     inkscape:window-height="705"
     inkscape:window-x="-8"
     inkscape:window-y="-8"
     inkscape:window-maximized="1" />
  <metadata
     id="metadata5">
    <rdf:RDF>
      <cc:Work
         rdf:about="">
        <dc:format>image/svg+xml</dc:format>
        <dc:type
           rdf:resource="http://purl.org/dc/dcmitype/StillImage" />
        <dc:title></dc:title>
      </cc:Work>
    </rdf:RDF>
  </metadata>
  <g
     inkscape:label="Layer 1"
     inkscape:groupmode="layer"
     id="layer1"
     transform="translate(0,-32.41665)">
    <path
       style="fill:#ffffff;fill-opacity:1;stroke:#000000;stroke-width:0;stroke-miterlimit:4;stroke-dasharray:none;stroke-opacity:1"
       inkscape:connector-curvature="0"
       d="m 223.08285,176.61457 c 0,-3.57199 1.22399,-8.33448 1.22399,-11.90624 0,-3.57199 0,-8.33427 -1.22399,-11.90626 l 25.71228,-17.85926 c 2.44867,-1.19029 3.67312,-4.76273 1.224,-8.33449 L 225.53129,84.936557 c -1.22399,-3.571988 -4.89756,-4.762721 -7.34645,-3.571988 l -29.38541,13.096766 c -6.12178,-4.762507 -14.6927,-9.524778 -22.03893,-11.906257 l -3.67312,-30.956245 c 0,-3.571763 -2.4489,-5.953013 -6.12201,-5.953013 h -48.97566 c -3.67312,0 -6.12201,2.38125 -6.12201,5.953013 l -3.673127,29.765736 c -8.570694,3.571988 -15.917146,7.14375 -22.03916,11.906033 L 46.770009,81.364569 c -2.448675,-1.190283 -6.121789,0 -7.346239,2.381254 L 14.93594,125.41759 c -2.448899,3.57176 -2.448899,7.14375 1.224,8.33448 l 25.712055,19.05 c 0,3.57199 -1.224,8.33427 -1.224,11.90626 0,3.57176 0,8.33425 1.224,11.90624 L 16.15994,194.47383 c -2.4489,1.19029 -3.673349,4.76273 -1.224,8.33449 l 24.48783,41.67176 c 1.224,3.57199 4.897564,4.76272 7.346239,3.57199 L 76.155413,234.9553 c 6.122014,4.76229 14.692691,9.52478 22.03916,11.90604 l 3.673127,30.95646 c 0,3.57177 2.44889,5.95302 6.12201,5.95302 h 48.97566 c 3.67311,0 6.12201,-2.38125 6.12201,-5.95302 l 3.67312,-30.95646 c 8.57068,-3.57177 15.91715,-7.14375 22.03893,-11.90604 l 29.38541,13.09677 c 2.44889,1.19028 6.122,0 7.34645,-2.38125 l 24.48784,-41.67198 c 1.22399,-2.38126 1.22399,-5.95302 -1.224,-8.33427 z m -90.60486,35.71875 c -26.93673,0 -48.975675,-21.43125 -48.975675,-47.62499 0,-26.19376 22.038945,-47.62501 48.975675,-47.62501 26.9365,0 48.97566,21.43125 48.97566,47.62501 0,26.19374 -22.03916,47.62499 -48.97566,47.62499 z"
       id="path1405" />
    <path
       style="opacity:1;fill:#ffffff;fill-opacity:0;stroke:#000000;stroke-width:0;stroke-linecap:square;stroke-linejoin:round;stroke-miterlimit:4;stroke-dasharray:none;stroke-opacity:1"
       d="m 462.27765,674.42179 c -61.11557,-13.29677 -111.45499,-56.2428 -134.74692,-114.95657 -7.04519,-17.75936 -7.68746,-22.70075 -7.71695,-59.37163 -0.031,-38.49987 0.31416,-40.85721 9.20263,-62.85714 33.49568,-82.90551 122.36214,-129.90857 210.67622,-111.43042 66.15112,13.84094 123.29432,68.62278 139.95706,134.17356 9.34349,36.75706 2.75329,86.33651 -16.27494,122.43958 -14.5704,27.64502 -49.672,61.15165 -79.43182,75.82254 -39.24838,19.34851 -81.36097,24.949 -121.66528,16.18008 z"
       id="path851"
       inkscape:connector-curvature="0"
       transform="matrix(0.26458333,0,0,0.26458333,0,32.41665)" />
    <path
       style="opacity:1;fill:#ffffff;fill-opacity:0;stroke:#000000;stroke-width:0;stroke-linecap:square;stroke-linejoin:round;stroke-miterlimit:4;stroke-dasharray:none;stroke-opacity:1"
       d="m 401.76512,948.06799 c -3.57443,-0.68608 -8.29597,-4.04671 -10.49234,-7.46805 -2.299,-3.58126 -7.13212,-32.1196 -11.39092,-67.26069 -4.06863,-33.57203 -8.10151,-62.17917 -8.962,-63.57143 -0.86046,-1.39226 -2.88417,-2.53137 -4.49717,-2.53137 -4.96854,0 -42.3321,-19.25569 -61.13701,-31.50757 l -17.83434,-11.61952 -59.26411,26.3624 c -55.70569,24.77955 -59.69033,26.11718 -66.36267,22.27783 -8.31585,-4.78503 -109.22075,-175.00211 -109.253743,-184.30083 -0.02801,-7.89585 5.037385,-12.14154 58.550383,-49.07537 l 45.71429,-31.55131 v -47.8196 -47.8196 L 105.40692,414.05551 C 62.095975,381.94628 53.868708,374.67848 53.283741,368.01088 52.21884,355.87288 151.13148,189.78887 161.61605,186.11029 c 6.42819,-2.25537 16.73631,1.01506 65.09263,20.65178 31.60022,12.83234 58.78874,23.33152 60.41894,23.33152 1.63021,0 8.56552,-3.85394 15.41181,-8.56431 10.19138,-7.01185 56.89443,-31.23102 67.083,-34.78776 1.47097,-0.5135 6.0534,-27.93364 10.18317,-60.93364 4.1298,-33.000002 9.24246,-62.71473 11.36152,-66.032731 2.11903,-3.318 7.95774,-6.853714 12.97486,-7.857142 5.01714,-1.003428 49.50265,-1.824415 98.85671,-1.824415 97.38866,0 107.87391,1.401878 110.78329,14.811721 0.78954,3.639268 4.1102,30.402565 7.3792,59.473997 3.269,29.07143 6.50385,55.56455 7.18854,58.8736 0.89586,4.32957 9.04186,9.78595 29.05346,19.46074 15.29468,7.39435 34.09374,17.95975 41.77565,23.47866 l 13.96712,10.03438 58.96831,-26.23083 c 47.94949,-21.32934 60.27552,-25.77112 65.96392,-23.77061 5.24082,1.8431 19.44528,23.59987 56.6276,86.73571 27.2976,46.35152 50.91337,87.45332 52.47948,91.33738 1.81012,4.48911 1.8662,9.17317 0.154,12.85714 -1.48146,3.18737 -25.89394,21.8476 -54.24997,41.46711 -50.77274,35.12963 -51.52697,35.8028 -49.61937,44.28572 2.58068,11.47603 2.46146,47.65323 -0.22143,67.18528 l -2.15849,15.71429 48.87449,35.71428 c 26.88094,19.64286 50.67371,38.25038 52.87277,41.35003 2.19906,3.09963 3.99829,8.78363 3.99829,12.63109 0,6.50826 -90.63903,164.8212 -99.35586,173.53803 -9.22197,9.22197 -16.29651,7.44071 -75.3138,-18.96283 l -58.40334,-26.12886 -15.18212,10.21683 c -14.89543,10.02383 -60.79183,33.07 -65.85894,33.07 -3.42483,0 -4.50006,6.35471 -11.84411,70 -3.4452,29.85714 -7.30995,57.10123 -8.58832,60.54243 -1.467,3.94897 -6.32637,7.36806 -13.17466,9.26977 -10.44851,2.90149 -182.90268,3.79226 -197.34928,1.01934 z M 552.54978,674.19034 c 35.65254,-10.75235 71.66391,-34.24875 93.41522,-60.95078 57.6142,-70.72745 53.11489,-172.949 -10.44405,-237.28242 -22.46683,-22.74058 -45.19437,-37.01438 -75.85575,-47.64037 -19.85171,-6.87982 -27.30205,-7.93218 -57.11542,-8.06753 -28.17966,-0.12794 -38.102,1.03074 -55.71429,6.50597 -62.81309,19.52707 -111.771,69.7363 -127.11815,130.36724 -5.52912,21.84346 -5.52912,64.09883 0,85.94229 17.09432,67.53334 74.18381,120.06168 147.31441,135.5448 17.77323,3.76291 66.78591,1.23014 85.51803,-4.4192 z"
       id="path853"
       inkscape:connector-curvature="0"
       transform="matrix(0.26458333,0,0,0.26458333,0,32.41665)" />
    <path
       style="opacity:1;fill:#ffffff;fill-opacity:0;stroke:#000000;stroke-width:0;stroke-linecap:square;stroke-linejoin:round;stroke-miterlimit:4;stroke-dasharray:none;stroke-opacity:1"
       d="m 401.76512,948.06799 c -3.57443,-0.68608 -8.29597,-4.04671 -10.49234,-7.46805 -2.299,-3.58126 -7.13212,-32.1196 -11.39092,-67.26069 -4.06863,-33.57203 -8.10151,-62.17917 -8.962,-63.57143 -0.86046,-1.39226 -2.88417,-2.53137 -4.49717,-2.53137 -4.96854,0 -42.3321,-19.25569 -61.13701,-31.50757 l -17.83434,-11.61952 -59.26411,26.3624 c -55.70569,24.77955 -59.69033,26.11718 -66.36267,22.27783 -8.31585,-4.78503 -109.22075,-175.00211 -109.253743,-184.30083 -0.02801,-7.89585 5.037385,-12.14154 58.550383,-49.07537 l 45.71429,-31.55131 v -47.8196 -47.8196 L 105.40692,414.05551 C 62.095975,381.94628 53.868708,374.67848 53.283741,368.01088 52.21884,355.87288 151.13148,189.78887 161.61605,186.11029 c 6.42819,-2.25537 16.73631,1.01506 65.09263,20.65178 31.60022,12.83234 58.78874,23.33152 60.41894,23.33152 1.63021,0 8.56552,-3.85394 15.41181,-8.56431 10.19138,-7.01185 56.89443,-31.23102 67.083,-34.78776 1.47097,-0.5135 6.0534,-27.93364 10.18317,-60.93364 4.1298,-33.000002 9.24246,-62.71473 11.36152,-66.032731 2.11903,-3.318 7.95774,-6.853714 12.97486,-7.857142 5.01714,-1.003428 49.50265,-1.824415 98.85671,-1.824415 97.38866,0 107.87391,1.401878 110.78329,14.811721 0.78954,3.639268 4.1102,30.402565 7.3792,59.473997 3.269,29.07143 6.50385,55.56455 7.18854,58.8736 0.89586,4.32957 9.04186,9.78595 29.05346,19.46074 15.29468,7.39435 34.09374,17.95975 41.77565,23.47866 l 13.96712,10.03438 58.96831,-26.23083 c 47.94949,-21.32934 60.27552,-25.77112 65.96392,-23.77061 5.24082,1.8431 19.44528,23.59987 56.6276,86.73571 27.2976,46.35152 50.91337,87.45332 52.47948,91.33738 1.81012,4.48911 1.8662,9.17317 0.154,12.85714 -1.48146,3.18737 -25.89394,21.8476 -54.24997,41.46711 -50.77274,35.12963 -51.52697,35.8028 -49.61937,44.28572 2.58068,11.47603 2.46146,47.65323 -0.22143,67.18528 l -2.15849,15.71429 48.87449,35.71428 c 26.88094,19.64286 50.67371,38.25038 52.87277,41.35003 2.19906,3.09963 3.99829,8.78363 3.99829,12.63109 0,6.50826 -90.63903,164.8212 -99.35586,173.53803 -9.22197,9.22197 -16.29651,7.44071 -75.3138,-18.96283 l -58.40334,-26.12886 -15.18212,10.21683 c -14.89543,10.02383 -60.79183,33.07 -65.85894,33.07 -3.42483,0 -4.50006,6.35471 -11.84411,70 -3.4452,29.85714 -7.30995,57.10123 -8.58832,60.54243 -1.467,3.94897 -6.32637,7.36806 -13.17466,9.26977 -10.44851,2.90149 -182.90268,3.79226 -197.34928,1.01934 z M 552.54978,674.19034 c 35.65254,-10.75235 71.66391,-34.24875 93.41522,-60.95078 57.6142,-70.72745 53.11489,-172.949 -10.44405,-237.28242 -22.46683,-22.74058 -45.19437,-37.01438 -75.85575,-47.64037 -19.85171,-6.87982 -27.30205,-7.93218 -57.11542,-8.06753 -28.17966,-0.12794 -38.102,1.03074 -55.71429,6.50597 -62.81309,19.52707 -111.771,69.7363 -127.11815,130.36724 -5.52912,21.84346 -5.52912,64.09883 0,85.94229 17.09432,67.53334 74.18381,120.06168 147.31441,135.5448 17.77323,3.76291 66.78591,1.23014 85.51803,-4.4192 z"
       id="path855"
       inkscape:connector-curvature="0"
       transform="matrix(0.26458333,0,0,0.26458333,0,32.41665)" />
    <path
       style="opacity:1;fill:#ffffff;fill-opacity:0;stroke:#000000;stroke-width:0;stroke-linecap:square;stroke-linejoin:round;stroke-miterlimit:4;stroke-dasharray:none;stroke-opacity:1"
       d="m 401.76512,948.06799 c -3.57443,-0.68608 -8.29597,-4.04671 -10.49234,-7.46805 -2.299,-3.58126 -7.13212,-32.1196 -11.39092,-67.26069 -4.06863,-33.57203 -8.10151,-62.17917 -8.962,-63.57143 -0.86046,-1.39226 -2.88417,-2.53137 -4.49717,-2.53137 -4.96854,0 -42.3321,-19.25569 -61.13701,-31.50757 l -17.83434,-11.61952 -59.26411,26.3624 c -55.70569,24.77955 -59.69033,26.11718 -66.36267,22.27783 -8.31585,-4.78503 -109.22075,-175.00211 -109.253743,-184.30083 -0.02801,-7.89585 5.037385,-12.14154 58.550383,-49.07537 l 45.71429,-31.55131 v -47.8196 -47.8196 L 105.40692,414.05551 C 62.095975,381.94628 53.868708,374.67848 53.283741,368.01088 52.21884,355.87288 151.13148,189.78887 161.61605,186.11029 c 6.42819,-2.25537 16.73631,1.01506 65.09263,20.65178 31.60022,12.83234 58.78874,23.33152 60.41894,23.33152 1.63021,0 8.56552,-3.85394 15.41181,-8.56431 10.19138,-7.01185 56.89443,-31.23102 67.083,-34.78776 1.47097,-0.5135 6.0534,-27.93364 10.18317,-60.93364 4.1298,-33.000002 9.24246,-62.71473 11.36152,-66.032731 2.11903,-3.318 7.95774,-6.853714 12.97486,-7.857142 5.01714,-1.003428 49.50265,-1.824415 98.85671,-1.824415 97.38866,0 107.87391,1.401878 110.78329,14.811721 0.78954,3.639268 4.1102,30.402565 7.3792,59.473997 3.269,29.07143 6.50385,55.56455 7.18854,58.8736 0.89586,4.32957 9.04186,9.78595 29.05346,19.46074 15.29468,7.39435 34.09374,17.95975 41.77565,23.47866 l 13.96712,10.03438 58.96831,-26.23083 c 47.94949,-21.32934 60.27552,-25.77112 65.96392,-23.77061 5.24082,1.8431 19.44528,23.59987 56.6276,86.73571 27.2976,46.35152 50.91337,87.45332 52.47948,91.33738 1.81012,4.48911 1.8662,9.17317 0.154,12.85714 -1.48146,3.18737 -25.89394,21.8476 -54.24997,41.46711 -50.77274,35.12963 -51.52697,35.8028 -49.61937,44.28572 2.58068,11.47603 2.46146,47.65323 -0.22143,67.18528 l -2.15849,15.71429 48.87449,35.71428 c 26.88094,19.64286 50.67371,38.25038 52.87277,41.35003 2.19906,3.09963 3.99829,8.78363 3.99829,12.63109 0,6.50826 -90.63903,164.8212 -99.35586,173.53803 -9.22197,9.22197 -16.29651,7.44071 -75.3138,-18.96283 l -58.40334,-26.12886 -15.18212,10.21683 c -14.89543,10.02383 -60.79183,33.07 -65.85894,33.07 -3.42483,0 -4.50006,6.35471 -11.84411,70 -3.4452,29.85714 -7.30995,57.10123 -8.58832,60.54243 -1.467,3.94897 -6.32637,7.36806 -13.17466,9.26977 -10.44851,2.90149 -182.90268,3.79226 -197.34928,1.01934 z M 552.54978,674.19034 c 35.65254,-10.75235 71.66391,-34.24875 93.41522,-60.95078 57.6142,-70.72745 53.11489,-172.949 -10.44405,-237.28242 -22.46683,-22.74058 -45.19437,-37.01438 -75.85575,-47.64037 -19.85171,-6.87982 -27.30205,-7.93218 -57.11542,-8.06753 -28.17966,-0.12794 -38.102,1.03074 -55.71429,6.50597 -62.81309,19.52707 -111.771,69.7363 -127.11815,130.36724 -5.52912,21.84346 -5.52912,64.09883 0,85.94229 17.09432,67.53334 74.18381,120.06168 147.31441,135.5448 17.77323,3.76291 66.78591,1.23014 85.51803,-4.4192 z"
       id="path857"
       inkscape:connector-curvature="0"
       transform="matrix(0.26458333,0,0,0.26458333,0,32.41665)" />
    <path
       style="opacity:1;fill:#ffffff;fill-opacity:0;stroke:#000000;stroke-width:0;stroke-linecap:square;stroke-linejoin:round;stroke-miterlimit:4;stroke-dasharray:none;stroke-opacity:1"
       d="m 401.76512,948.06799 c -3.57443,-0.68608 -8.29597,-4.04671 -10.49234,-7.46805 -2.299,-3.58126 -7.13212,-32.1196 -11.39092,-67.26069 -4.06863,-33.57203 -8.10151,-62.17917 -8.962,-63.57143 -0.86046,-1.39226 -2.88417,-2.53137 -4.49717,-2.53137 -4.96854,0 -42.3321,-19.25569 -61.13701,-31.50757 l -17.83434,-11.61952 -59.26411,26.3624 c -55.70569,24.77955 -59.69033,26.11718 -66.36267,22.27783 -8.31585,-4.78503 -109.22075,-175.00211 -109.253743,-184.30083 -0.02801,-7.89585 5.037385,-12.14154 58.550383,-49.07537 l 45.71429,-31.55131 v -47.8196 -47.8196 L 105.40692,414.05551 C 62.095975,381.94628 53.868708,374.67848 53.283741,368.01088 52.21884,355.87288 151.13148,189.78887 161.61605,186.11029 c 6.42819,-2.25537 16.73631,1.01506 65.09263,20.65178 31.60022,12.83234 58.78874,23.33152 60.41894,23.33152 1.63021,0 8.56552,-3.85394 15.41181,-8.56431 10.19138,-7.01185 56.89443,-31.23102 67.083,-34.78776 1.47097,-0.5135 6.0534,-27.93364 10.18317,-60.93364 4.1298,-33.000002 9.24246,-62.71473 11.36152,-66.032731 2.11903,-3.318 7.95774,-6.853714 12.97486,-7.857142 5.01714,-1.003428 49.50265,-1.824415 98.85671,-1.824415 97.38866,0 107.87391,1.401878 110.78329,14.811721 0.78954,3.639268 4.1102,30.402565 7.3792,59.473997 3.269,29.07143 6.50385,55.56455 7.18854,58.8736 0.89586,4.32957 9.04186,9.78595 29.05346,19.46074 15.29468,7.39435 34.09374,17.95975 41.77565,23.47866 l 13.96712,10.03438 58.96831,-26.23083 c 47.94949,-21.32934 60.27552,-25.77112 65.96392,-23.77061 5.24082,1.8431 19.44528,23.59987 56.6276,86.73571 27.2976,46.35152 50.91337,87.45332 52.47948,91.33738 1.81012,4.48911 1.8662,9.17317 0.154,12.85714 -1.48146,3.18737 -25.89394,21.8476 -54.24997,41.46711 -50.77274,35.12963 -51.52697,35.8028 -49.61937,44.28572 2.58068,11.47603 2.46146,47.65323 -0.22143,67.18528 l -2.15849,15.71429 48.87449,35.71428 c 26.88094,19.64286 50.67371,38.25038 52.87277,41.35003 2.19906,3.09963 3.99829,8.78363 3.99829,12.63109 0,6.50826 -90.63903,164.8212 -99.35586,173.53803 -9.22197,9.22197 -16.29651,7.44071 -75.3138,-18.96283 l -58.40334,-26.12886 -15.18212,10.21683 c -14.89543,10.02383 -60.79183,33.07 -65.85894,33.07 -3.42483,0 -4.50006,6.35471 -11.84411,70 -3.4452,29.85714 -7.30995,57.10123 -8.58832,60.54243 -1.467,3.94897 -6.32637,7.36806 -13.17466,9.26977 -10.44851,2.90149 -182.90268,3.79226 -197.34928,1.01934 z M 552.54978,674.19034 c 35.65254,-10.75235 71.66391,-34.24875 93.41522,-60.95078 57.6142,-70.72745 53.11489,-172.949 -10.44405,-237.28242 -22.46683,-22.74058 -45.19437,-37.01438 -75.85575,-47.64037 -19.85171,-6.87982 -27.30205,-7.93218 -57.11542,-8.06753 -28.17966,-0.12794 -38.102,1.03074 -55.71429,6.50597 -62.81309,19.52707 -111.771,69.7363 -127.11815,130.36724 -5.52912,21.84346 -5.52912,64.09883 0,85.94229 17.09432,67.53334 74.18381,120.06168 147.31441,135.5448 17.77323,3.76291 66.78591,1.23014 85.51803,-4.4192 z"
       id="path859"
       inkscape:connector-curvature="0"
       transform="matrix(0.26458333,0,0,0.26458333,0,32.41665)" />
    <path
       style="opacity:1;fill:#ffffff;fill-opacity:0;stroke:#000000;stroke-width:0;stroke-linecap:square;stroke-linejoin:round;stroke-miterlimit:4;stroke-dasharray:none;stroke-opacity:1"
       d="m 401.76512,948.06799 c -3.57443,-0.68608 -8.29597,-4.04671 -10.49234,-7.46805 -2.299,-3.58126 -7.13212,-32.1196 -11.39092,-67.26069 -4.06863,-33.57203 -8.10151,-62.17917 -8.962,-63.57143 -0.86046,-1.39226 -2.88417,-2.53137 -4.49717,-2.53137 -4.96854,0 -42.3321,-19.25569 -61.13701,-31.50757 l -17.83434,-11.61952 -59.26411,26.3624 c -55.70569,24.77955 -59.69033,26.11718 -66.36267,22.27783 -8.31585,-4.78503 -109.22075,-175.00211 -109.253743,-184.30083 -0.02801,-7.89585 5.037385,-12.14154 58.550383,-49.07537 l 45.71429,-31.55131 v -47.8196 -47.8196 L 105.40692,414.05551 C 62.095975,381.94628 53.868708,374.67848 53.283741,368.01088 52.21884,355.87288 151.13148,189.78887 161.61605,186.11029 c 6.42819,-2.25537 16.73631,1.01506 65.09263,20.65178 31.60022,12.83234 58.78874,23.33152 60.41894,23.33152 1.63021,0 8.56552,-3.85394 15.41181,-8.56431 10.19138,-7.01185 56.89443,-31.23102 67.083,-34.78776 1.47097,-0.5135 6.0534,-27.93364 10.18317,-60.93364 4.1298,-33.000002 9.24246,-62.71473 11.36152,-66.032731 2.11903,-3.318 7.95774,-6.853714 12.97486,-7.857142 5.01714,-1.003428 49.50265,-1.824415 98.85671,-1.824415 97.38866,0 107.87391,1.401878 110.78329,14.811721 0.78954,3.639268 4.1102,30.402565 7.3792,59.473997 3.269,29.07143 6.50385,55.56455 7.18854,58.8736 0.89586,4.32957 9.04186,9.78595 29.05346,19.46074 15.29468,7.39435 34.09374,17.95975 41.77565,23.47866 l 13.96712,10.03438 58.96831,-26.23083 c 47.94949,-21.32934 60.27552,-25.77112 65.96392,-23.77061 5.24082,1.8431 19.44528,23.59987 56.6276,86.73571 27.2976,46.35152 50.91337,87.45332 52.47948,91.33738 1.81012,4.48911 1.8662,9.17317 0.154,12.85714 -1.48146,3.18737 -25.89394,21.8476 -54.24997,41.46711 -50.77274,35.12963 -51.52697,35.8028 -49.61937,44.28572 2.58068,11.47603 2.46146,47.65323 -0.22143,67.18528 l -2.15849,15.71429 48.87449,35.71428 c 26.88094,19.64286 50.67371,38.25038 52.87277,41.35003 2.19906,3.09963 3.99829,8.78363 3.99829,12.63109 0,6.50826 -90.63903,164.8212 -99.35586,173.53803 -9.22197,9.22197 -16.29651,7.44071 -75.3138,-18.96283 l -58.40334,-26.12886 -15.18212,10.21683 c -14.89543,10.02383 -60.79183,33.07 -65.85894,33.07 -3.42483,0 -4.50006,6.35471 -11.84411,70 -3.4452,29.85714 -7.30995,57.10123 -8.58832,60.54243 -1.467,3.94897 -6.32637,7.36806 -13.17466,9.26977 -10.44851,2.90149 -182.90268,3.79226 -197.34928,1.01934 z M 552.54978,674.19034 c 35.65254,-10.75235 71.66391,-34.24875 93.41522,-60.95078 57.6142,-70.72745 53.11489,-172.949 -10.44405,-237.28242 -22.46683,-22.74058 -45.19437,-37.01438 -75.85575,-47.64037 -19.85171,-6.87982 -27.30205,-7.93218 -57.11542,-8.06753 -28.17966,-0.12794 -38.102,1.03074 -55.71429,6.50597 -62.81309,19.52707 -111.771,69.7363 -127.11815,130.36724 -5.52912,21.84346 -5.52912,64.09883 0,85.94229 17.09432,67.53334 74.18381,120.06168 147.31441,135.5448 17.77323,3.76291 66.78591,1.23014 85.51803,-4.4192 z"
       id="path861"
       inkscape:connector-curvature="0"
       transform="matrix(0.26458333,0,0,0.26458333,0,32.41665)" />
    <path
       style="opacity:1;fill:#ffffff;fill-opacity:0;stroke:#000000;stroke-width:0;stroke-linecap:square;stroke-linejoin:round;stroke-miterlimit:4;stroke-dasharray:none;stroke-opacity:1"
       d="m 401.76512,948.06799 c -3.57443,-0.68608 -8.29597,-4.04671 -10.49234,-7.46805 -2.299,-3.58126 -7.13212,-32.1196 -11.39092,-67.26069 -4.06863,-33.57203 -8.10151,-62.17917 -8.962,-63.57143 -0.86046,-1.39226 -2.88417,-2.53137 -4.49717,-2.53137 -4.96854,0 -42.3321,-19.25569 -61.13701,-31.50757 l -17.83434,-11.61952 -59.26411,26.3624 c -55.70569,24.77955 -59.69033,26.11718 -66.36267,22.27783 -8.31585,-4.78503 -109.22075,-175.00211 -109.253743,-184.30083 -0.02801,-7.89585 5.037385,-12.14154 58.550383,-49.07537 l 45.71429,-31.55131 v -47.8196 -47.8196 L 105.40692,414.05551 C 62.095975,381.94628 53.868708,374.67848 53.283741,368.01088 52.21884,355.87288 151.13148,189.78887 161.61605,186.11029 c 6.42819,-2.25537 16.73631,1.01506 65.09263,20.65178 31.60022,12.83234 58.78874,23.33152 60.41894,23.33152 1.63021,0 8.56552,-3.85394 15.41181,-8.56431 10.19138,-7.01185 56.89443,-31.23102 67.083,-34.78776 1.47097,-0.5135 6.0534,-27.93364 10.18317,-60.93364 4.1298,-33.000002 9.24246,-62.71473 11.36152,-66.032731 2.11903,-3.318 7.95774,-6.853714 12.97486,-7.857142 5.01714,-1.003428 49.50265,-1.824415 98.85671,-1.824415 97.38866,0 107.87391,1.401878 110.78329,14.811721 0.78954,3.639268 4.1102,30.402565 7.3792,59.473997 3.269,29.07143 6.50385,55.56455 7.18854,58.8736 0.89586,4.32957 9.04186,9.78595 29.05346,19.46074 15.29468,7.39435 34.09374,17.95975 41.77565,23.47866 l 13.96712,10.03438 58.96831,-26.23083 c 47.94949,-21.32934 60.27552,-25.77112 65.96392,-23.77061 5.24082,1.8431 19.44528,23.59987 56.6276,86.73571 27.2976,46.35152 50.91337,87.45332 52.47948,91.33738 1.81012,4.48911 1.8662,9.17317 0.154,12.85714 -1.48146,3.18737 -25.89394,21.8476 -54.24997,41.46711 -50.77274,35.12963 -51.52697,35.8028 -49.61937,44.28572 2.58068,11.47603 2.46146,47.65323 -0.22143,67.18528 l -2.15849,15.71429 48.87449,35.71428 c 26.88094,19.64286 50.67371,38.25038 52.87277,41.35003 2.19906,3.09963 3.99829,8.78363 3.99829,12.63109 0,6.50826 -90.63903,164.8212 -99.35586,173.53803 -9.22197,9.22197 -16.29651,7.44071 -75.3138,-18.96283 l -58.40334,-26.12886 -15.18212,10.21683 c -14.89543,10.02383 -60.79183,33.07 -65.85894,33.07 -3.42483,0 -4.50006,6.35471 -11.84411,70 -3.4452,29.85714 -7.30995,57.10123 -8.58832,60.54243 -1.467,3.94897 -6.32637,7.36806 -13.17466,9.26977 -10.44851,2.90149 -182.90268,3.79226 -197.34928,1.01934 z M 552.54978,674.19034 c 35.65254,-10.75235 71.66391,-34.24875 93.41522,-60.95078 57.6142,-70.72745 53.11489,-172.949 -10.44405,-237.28242 -22.46683,-22.74058 -45.19437,-37.01438 -75.85575,-47.64037 -19.85171,-6.87982 -27.30205,-7.93218 -57.11542,-8.06753 -28.17966,-0.12794 -38.102,1.03074 -55.71429,6.50597 -62.81309,19.52707 -111.771,69.7363 -127.11815,130.36724 -5.52912,21.84346 -5.52912,64.09883 0,85.94229 17.09432,67.53334 74.18381,120.06168 147.31441,135.5448 17.77323,3.76291 66.78591,1.23014 85.51803,-4.4192 z"
       id="path863"
       inkscape:connector-curvature="0"
       transform="matrix(0.26458333,0,0,0.26458333,0,32.41665)" />
    <path
       style="opacity:1;fill:#ffffff;fill-opacity:0;stroke:#000000;stroke-width:0;stroke-linecap:square;stroke-linejoin:round;stroke-miterlimit:4;stroke-dasharray:none;stroke-opacity:1"
       d="m 401.76512,948.06799 c -3.57443,-0.68608 -8.29597,-4.04671 -10.49234,-7.46805 -2.299,-3.58126 -7.13212,-32.1196 -11.39092,-67.26069 -4.06863,-33.57203 -8.10151,-62.17917 -8.962,-63.57143 -0.86046,-1.39226 -2.88417,-2.53137 -4.49717,-2.53137 -4.96854,0 -42.3321,-19.25569 -61.13701,-31.50757 l -17.83434,-11.61952 -59.26411,26.3624 c -55.70569,24.77955 -59.69033,26.11718 -66.36267,22.27783 -8.31585,-4.78503 -109.22075,-175.00211 -109.253743,-184.30083 -0.02801,-7.89585 5.037385,-12.14154 58.550383,-49.07537 l 45.71429,-31.55131 v -47.8196 -47.8196 L 105.40692,414.05551 C 62.095975,381.94628 53.868708,374.67848 53.283741,368.01088 52.21884,355.87288 151.13148,189.78887 161.61605,186.11029 c 6.42819,-2.25537 16.73631,1.01506 65.09263,20.65178 31.60022,12.83234 58.78874,23.33152 60.41894,23.33152 1.63021,0 8.56552,-3.85394 15.41181,-8.56431 10.19138,-7.01185 56.89443,-31.23102 67.083,-34.78776 1.47097,-0.5135 6.0534,-27.93364 10.18317,-60.93364 4.1298,-33.000002 9.24246,-62.71473 11.36152,-66.032731 2.11903,-3.318 7.95774,-6.853714 12.97486,-7.857142 5.01714,-1.003428 49.50265,-1.824415 98.85671,-1.824415 97.38866,0 107.87391,1.401878 110.78329,14.811721 0.78954,3.639268 4.1102,30.402565 7.3792,59.473997 3.269,29.07143 6.50385,55.56455 7.18854,58.8736 0.89586,4.32957 9.04186,9.78595 29.05346,19.46074 15.29468,7.39435 34.09374,17.95975 41.77565,23.47866 l 13.96712,10.03438 58.96831,-26.23083 c 47.94949,-21.32934 60.27552,-25.77112 65.96392,-23.77061 5.24082,1.8431 19.44528,23.59987 56.6276,86.73571 27.2976,46.35152 50.91337,87.45332 52.47948,91.33738 1.81012,4.48911 1.8662,9.17317 0.154,12.85714 -1.48146,3.18737 -25.89394,21.8476 -54.24997,41.46711 -50.77274,35.12963 -51.52697,35.8028 -49.61937,44.28572 2.58068,11.47603 2.46146,47.65323 -0.22143,67.18528 l -2.15849,15.71429 48.87449,35.71428 c 26.88094,19.64286 50.67371,38.25038 52.87277,41.35003 2.19906,3.09963 3.99829,8.78363 3.99829,12.63109 0,6.50826 -90.63903,164.8212 -99.35586,173.53803 -9.22197,9.22197 -16.29651,7.44071 -75.3138,-18.96283 l -58.40334,-26.12886 -15.18212,10.21683 c -14.89543,10.02383 -60.79183,33.07 -65.85894,33.07 -3.42483,0 -4.50006,6.35471 -11.84411,70 -3.4452,29.85714 -7.30995,57.10123 -8.58832,60.54243 -1.467,3.94897 -6.32637,7.36806 -13.17466,9.26977 -10.44851,2.90149 -182.90268,3.79226 -197.34928,1.01934 z M 552.54978,674.19034 c 35.65254,-10.75235 71.66391,-34.24875 93.41522,-60.95078 57.6142,-70.72745 53.11489,-172.949 -10.44405,-237.28242 -22.46683,-22.74058 -45.19437,-37.01438 -75.85575,-47.64037 -19.85171,-6.87982 -27.30205,-7.93218 -57.11542,-8.06753 -28.17966,-0.12794 -38.102,1.03074 -55.71429,6.50597 -62.81309,19.52707 -111.771,69.7363 -127.11815,130.36724 -5.52912,21.84346 -5.52912,64.09883 0,85.94229 17.09432,67.53334 74.18381,120.06168 147.31441,135.5448 17.77323,3.76291 66.78591,1.23014 85.51803,-4.4192 z"
       id="path865"
       inkscape:connector-curvature="0"
       transform="matrix(0.26458333,0,0,0.26458333,0,32.41665)" />
    <path
       style="opacity:1;fill:#ffffff;fill-opacity:0;stroke:#000000;stroke-width:0;stroke-linecap:square;stroke-linejoin:round;stroke-miterlimit:4;stroke-dasharray:none;stroke-opacity:1"
       d="m 401.76512,948.06799 c -3.57443,-0.68608 -8.29597,-4.04671 -10.49234,-7.46805 -2.299,-3.58126 -7.13212,-32.1196 -11.39092,-67.26069 -4.06863,-33.57203 -8.10151,-62.17917 -8.962,-63.57143 -0.86046,-1.39226 -2.88417,-2.53137 -4.49717,-2.53137 -4.96854,0 -42.3321,-19.25569 -61.13701,-31.50757 l -17.83434,-11.61952 -59.26411,26.3624 c -55.70569,24.77955 -59.69033,26.11718 -66.36267,22.27783 -8.31585,-4.78503 -109.22075,-175.00211 -109.253743,-184.30083 -0.02801,-7.89585 5.037385,-12.14154 58.550383,-49.07537 l 45.71429,-31.55131 v -47.8196 -47.8196 L 105.40692,414.05551 C 62.095975,381.94628 53.868708,374.67848 53.283741,368.01088 52.21884,355.87288 151.13148,189.78887 161.61605,186.11029 c 6.42819,-2.25537 16.73631,1.01506 65.09263,20.65178 31.60022,12.83234 58.78874,23.33152 60.41894,23.33152 1.63021,0 8.56552,-3.85394 15.41181,-8.56431 10.19138,-7.01185 56.89443,-31.23102 67.083,-34.78776 1.47097,-0.5135 6.0534,-27.93364 10.18317,-60.93364 4.1298,-33.000002 9.24246,-62.71473 11.36152,-66.032731 2.11903,-3.318 7.95774,-6.853714 12.97486,-7.857142 5.01714,-1.003428 49.50265,-1.824415 98.85671,-1.824415 97.38866,0 107.87391,1.401878 110.78329,14.811721 0.78954,3.639268 4.1102,30.402565 7.3792,59.473997 3.269,29.07143 6.50385,55.56455 7.18854,58.8736 0.89586,4.32957 9.04186,9.78595 29.05346,19.46074 15.29468,7.39435 34.09374,17.95975 41.77565,23.47866 l 13.96712,10.03438 58.96831,-26.23083 c 47.94949,-21.32934 60.27552,-25.77112 65.96392,-23.77061 5.24082,1.8431 19.44528,23.59987 56.6276,86.73571 27.2976,46.35152 50.91337,87.45332 52.47948,91.33738 1.81012,4.48911 1.8662,9.17317 0.154,12.85714 -1.48146,3.18737 -25.89394,21.8476 -54.24997,41.46711 -50.77274,35.12963 -51.52697,35.8028 -49.61937,44.28572 2.58068,11.47603 2.46146,47.65323 -0.22143,67.18528 l -2.15849,15.71429 48.87449,35.71428 c 26.88094,19.64286 50.67371,38.25038 52.87277,41.35003 2.19906,3.09963 3.99829,8.78363 3.99829,12.63109 0,6.50826 -90.63903,164.8212 -99.35586,173.53803 -9.22197,9.22197 -16.29651,7.44071 -75.3138,-18.96283 l -58.40334,-26.12886 -15.18212,10.21683 c -14.89543,10.02383 -60.79183,33.07 -65.85894,33.07 -3.42483,0 -4.50006,6.35471 -11.84411,70 -3.4452,29.85714 -7.30995,57.10123 -8.58832,60.54243 -1.467,3.94897 -6.32637,7.36806 -13.17466,9.26977 -10.44851,2.90149 -182.90268,3.79226 -197.34928,1.01934 z M 552.54978,674.19034 c 35.65254,-10.75235 71.66391,-34.24875 93.41522,-60.95078 57.6142,-70.72745 53.11489,-172.949 -10.44405,-237.28242 -22.46683,-22.74058 -45.19437,-37.01438 -75.85575,-47.64037 -19.85171,-6.87982 -27.30205,-7.93218 -57.11542,-8.06753 -28.17966,-0.12794 -38.102,1.03074 -55.71429,6.50597 -62.81309,19.52707 -111.771,69.7363 -127.11815,130.36724 -5.52912,21.84346 -5.52912,64.09883 0,85.94229 17.09432,67.53334 74.18381,120.06168 147.31441,135.5448 17.77323,3.76291 66.78591,1.23014 85.51803,-4.4192 z"
       id="path867"
       inkscape:connector-curvature="0"
       transform="matrix(0.26458333,0,0,0.26458333,0,32.41665)" />
    <path
       style="opacity:1;fill:#ffffff;fill-opacity:0;stroke:#000000;stroke-width:0;stroke-linecap:square;stroke-linejoin:round;stroke-miterlimit:4;stroke-dasharray:none;stroke-opacity:1"
       d="m 401.76512,948.06799 c -3.57443,-0.68608 -8.29597,-4.04671 -10.49234,-7.46805 -2.299,-3.58126 -7.13212,-32.1196 -11.39092,-67.26069 -4.06863,-33.57203 -8.10151,-62.17917 -8.962,-63.57143 -0.86046,-1.39226 -2.88417,-2.53137 -4.49717,-2.53137 -4.96854,0 -42.3321,-19.25569 -61.13701,-31.50757 l -17.83434,-11.61952 -59.26411,26.3624 c -55.70569,24.77955 -59.69033,26.11718 -66.36267,22.27783 -8.31585,-4.78503 -109.22075,-175.00211 -109.253743,-184.30083 -0.02801,-7.89585 5.037385,-12.14154 58.550383,-49.07537 l 45.71429,-31.55131 v -47.8196 -47.8196 L 105.40692,414.05551 C 62.095975,381.94628 53.868708,374.67848 53.283741,368.01088 52.21884,355.87288 151.13148,189.78887 161.61605,186.11029 c 6.42819,-2.25537 16.73631,1.01506 65.09263,20.65178 31.60022,12.83234 58.78874,23.33152 60.41894,23.33152 1.63021,0 8.56552,-3.85394 15.41181,-8.56431 10.19138,-7.01185 56.89443,-31.23102 67.083,-34.78776 1.47097,-0.5135 6.0534,-27.93364 10.18317,-60.93364 4.1298,-33.000002 9.24246,-62.71473 11.36152,-66.032731 2.11903,-3.318 7.95774,-6.853714 12.97486,-7.857142 5.01714,-1.003428 49.50265,-1.824415 98.85671,-1.824415 97.38866,0 107.87391,1.401878 110.78329,14.811721 0.78954,3.639268 4.1102,30.402565 7.3792,59.473997 3.269,29.07143 6.50385,55.56455 7.18854,58.8736 0.89586,4.32957 9.04186,9.78595 29.05346,19.46074 15.29468,7.39435 34.09374,17.95975 41.77565,23.47866 l 13.96712,10.03438 58.96831,-26.23083 c 47.94949,-21.32934 60.27552,-25.77112 65.96392,-23.77061 5.24082,1.8431 19.44528,23.59987 56.6276,86.73571 27.2976,46.35152 50.91337,87.45332 52.47948,91.33738 1.81012,4.48911 1.8662,9.17317 0.154,12.85714 -1.48146,3.18737 -25.89394,21.8476 -54.24997,41.46711 -50.77274,35.12963 -51.52697,35.8028 -49.61937,44.28572 2.58068,11.47603 2.46146,47.65323 -0.22143,67.18528 l -2.15849,15.71429 48.87449,35.71428 c 26.88094,19.64286 50.67371,38.25038 52.87277,41.35003 2.19906,3.09963 3.99829,8.78363 3.99829,12.63109 0,6.50826 -90.63903,164.8212 -99.35586,173.53803 -9.22197,9.22197 -16.29651,7.44071 -75.3138,-18.96283 l -58.40334,-26.12886 -15.18212,10.21683 c -14.89543,10.02383 -60.79183,33.07 -65.85894,33.07 -3.42483,0 -4.50006,6.35471 -11.84411,70 -3.4452,29.85714 -7.30995,57.10123 -8.58832,60.54243 -1.467,3.94897 -6.32637,7.36806 -13.17466,9.26977 -10.44851,2.90149 -182.90268,3.79226 -197.34928,1.01934 z M 552.54978,674.19034 c 35.65254,-10.75235 71.66391,-34.24875 93.41522,-60.95078 57.6142,-70.72745 53.11489,-172.949 -10.44405,-237.28242 -22.46683,-22.74058 -45.19437,-37.01438 -75.85575,-47.64037 -19.85171,-6.87982 -27.30205,-7.93218 -57.11542,-8.06753 -28.17966,-0.12794 -38.102,1.03074 -55.71429,6.50597 -62.81309,19.52707 -111.771,69.7363 -127.11815,130.36724 -5.52912,21.84346 -5.52912,64.09883 0,85.94229 17.09432,67.53334 74.18381,120.06168 147.31441,135.5448 17.77323,3.76291 66.78591,1.23014 85.51803,-4.4192 z"
       id="path869"
       inkscape:connector-curvature="0"
       transform="matrix(0.26458333,0,0,0.26458333,0,32.41665)" />
    <path
       style="opacity:1;fill:#ffffff;fill-opacity:0;stroke:#000000;stroke-width:0;stroke-linecap:square;stroke-linejoin:round;stroke-miterlimit:4;stroke-dasharray:none;stroke-opacity:1"
       d="m 401.76512,948.06799 c -3.57443,-0.68608 -8.29597,-4.04671 -10.49234,-7.46805 -2.299,-3.58126 -7.13212,-32.1196 -11.39092,-67.26069 -4.06863,-33.57203 -8.10151,-62.17917 -8.962,-63.57143 -0.86046,-1.39226 -2.88417,-2.53137 -4.49717,-2.53137 -4.96854,0 -42.3321,-19.25569 -61.13701,-31.50757 l -17.83434,-11.61952 -59.26411,26.3624 c -55.70569,24.77955 -59.69033,26.11718 -66.36267,22.27783 -8.31585,-4.78503 -109.22075,-175.00211 -109.253743,-184.30083 -0.02801,-7.89585 5.037385,-12.14154 58.550383,-49.07537 l 45.71429,-31.55131 v -47.8196 -47.8196 L 105.40692,414.05551 C 62.095975,381.94628 53.868708,374.67848 53.283741,368.01088 52.21884,355.87288 151.13148,189.78887 161.61605,186.11029 c 6.42819,-2.25537 16.73631,1.01506 65.09263,20.65178 31.60022,12.83234 58.78874,23.33152 60.41894,23.33152 1.63021,0 8.56552,-3.85394 15.41181,-8.56431 10.19138,-7.01185 56.89443,-31.23102 67.083,-34.78776 1.47097,-0.5135 6.0534,-27.93364 10.18317,-60.93364 4.1298,-33.000002 9.24246,-62.71473 11.36152,-66.032731 2.11903,-3.318 7.95774,-6.853714 12.97486,-7.857142 5.01714,-1.003428 49.50265,-1.824415 98.85671,-1.824415 97.38866,0 107.87391,1.401878 110.78329,14.811721 0.78954,3.639268 4.1102,30.402565 7.3792,59.473997 3.269,29.07143 6.50385,55.56455 7.18854,58.8736 0.89586,4.32957 9.04186,9.78595 29.05346,19.46074 15.29468,7.39435 34.09374,17.95975 41.77565,23.47866 l 13.96712,10.03438 58.96831,-26.23083 c 47.94949,-21.32934 60.27552,-25.77112 65.96392,-23.77061 5.24082,1.8431 19.44528,23.59987 56.6276,86.73571 27.2976,46.35152 50.91337,87.45332 52.47948,91.33738 1.81012,4.48911 1.8662,9.17317 0.154,12.85714 -1.48146,3.18737 -25.89394,21.8476 -54.24997,41.46711 -50.77274,35.12963 -51.52697,35.8028 -49.61937,44.28572 2.58068,11.47603 2.46146,47.65323 -0.22143,67.18528 l -2.15849,15.71429 48.87449,35.71428 c 26.88094,19.64286 50.67371,38.25038 52.87277,41.35003 2.19906,3.09963 3.99829,8.78363 3.99829,12.63109 0,6.50826 -90.63903,164.8212 -99.35586,173.53803 -9.22197,9.22197 -16.29651,7.44071 -75.3138,-18.96283 l -58.40334,-26.12886 -15.18212,10.21683 c -14.89543,10.02383 -60.79183,33.07 -65.85894,33.07 -3.42483,0 -4.50006,6.35471 -11.84411,70 -3.4452,29.85714 -7.30995,57.10123 -8.58832,60.54243 -1.467,3.94897 -6.32637,7.36806 -13.17466,9.26977 -10.44851,2.90149 -182.90268,3.79226 -197.34928,1.01934 z M 552.54978,674.19034 c 35.65254,-10.75235 71.66391,-34.24875 93.41522,-60.95078 57.6142,-70.72745 53.11489,-172.949 -10.44405,-237.28242 -22.46683,-22.74058 -45.19437,-37.01438 -75.85575,-47.64037 -19.85171,-6.87982 -27.30205,-7.93218 -57.11542,-8.06753 -28.17966,-0.12794 -38.102,1.03074 -55.71429,6.50597 -62.81309,19.52707 -111.771,69.7363 -127.11815,130.36724 -5.52912,21.84346 -5.52912,64.09883 0,85.94229 17.09432,67.53334 74.18381,120.06168 147.31441,135.5448 17.77323,3.76291 66.78591,1.23014 85.51803,-4.4192 z"
       id="path871"
       inkscape:connector-curvature="0"
       transform="matrix(0.26458333,0,0,0.26458333,0,32.41665)" />
    <path
       style="opacity:1;fill:#ffffff;fill-opacity:0;stroke:#000000;stroke-width:0;stroke-linecap:square;stroke-linejoin:round;stroke-miterlimit:4;stroke-dasharray:none;stroke-opacity:1"
       d="m 401.76512,948.06799 c -3.57443,-0.68608 -8.29597,-4.04671 -10.49234,-7.46805 -2.299,-3.58126 -7.13212,-32.1196 -11.39092,-67.26069 -4.06863,-33.57203 -8.10151,-62.17917 -8.962,-63.57143 -0.86046,-1.39226 -2.88417,-2.53137 -4.49717,-2.53137 -4.96854,0 -42.3321,-19.25569 -61.13701,-31.50757 l -17.83434,-11.61952 -59.26411,26.3624 c -55.70569,24.77955 -59.69033,26.11718 -66.36267,22.27783 -8.31585,-4.78503 -109.22075,-175.00211 -109.253743,-184.30083 -0.02801,-7.89585 5.037385,-12.14154 58.550383,-49.07537 l 45.71429,-31.55131 v -47.8196 -47.8196 L 105.40692,414.05551 C 62.095975,381.94628 53.868708,374.67848 53.283741,368.01088 52.21884,355.87288 151.13148,189.78887 161.61605,186.11029 c 6.42819,-2.25537 16.73631,1.01506 65.09263,20.65178 31.60022,12.83234 58.78874,23.33152 60.41894,23.33152 1.63021,0 8.56552,-3.85394 15.41181,-8.56431 10.19138,-7.01185 56.89443,-31.23102 67.083,-34.78776 1.47097,-0.5135 6.0534,-27.93364 10.18317,-60.93364 4.1298,-33.000002 9.24246,-62.71473 11.36152,-66.032731 2.11903,-3.318 7.95774,-6.853714 12.97486,-7.857142 5.01714,-1.003428 49.50265,-1.824415 98.85671,-1.824415 97.38866,0 107.87391,1.401878 110.78329,14.811721 0.78954,3.639268 4.1102,30.402565 7.3792,59.473997 3.269,29.07143 6.50385,55.56455 7.18854,58.8736 0.89586,4.32957 9.04186,9.78595 29.05346,19.46074 15.29468,7.39435 34.09374,17.95975 41.77565,23.47866 l 13.96712,10.03438 58.96831,-26.23083 c 47.94949,-21.32934 60.27552,-25.77112 65.96392,-23.77061 5.24082,1.8431 19.44528,23.59987 56.6276,86.73571 27.2976,46.35152 50.91337,87.45332 52.47948,91.33738 1.81012,4.48911 1.8662,9.17317 0.154,12.85714 -1.48146,3.18737 -25.89394,21.8476 -54.24997,41.46711 -50.77274,35.12963 -51.52697,35.8028 -49.61937,44.28572 2.58068,11.47603 2.46146,47.65323 -0.22143,67.18528 l -2.15849,15.71429 48.87449,35.71428 c 26.88094,19.64286 50.67371,38.25038 52.87277,41.35003 2.19906,3.09963 3.99829,8.78363 3.99829,12.63109 0,6.50826 -90.63903,164.8212 -99.35586,173.53803 -9.22197,9.22197 -16.29651,7.44071 -75.3138,-18.96283 l -58.40334,-26.12886 -15.18212,10.21683 c -14.89543,10.02383 -60.79183,33.07 -65.85894,33.07 -3.42483,0 -4.50006,6.35471 -11.84411,70 -3.4452,29.85714 -7.30995,57.10123 -8.58832,60.54243 -1.467,3.94897 -6.32637,7.36806 -13.17466,9.26977 -10.44851,2.90149 -182.90268,3.79226 -197.34928,1.01934 z M 552.54978,674.19034 c 35.65254,-10.75235 71.66391,-34.24875 93.41522,-60.95078 57.6142,-70.72745 53.11489,-172.949 -10.44405,-237.28242 -22.46683,-22.74058 -45.19437,-37.01438 -75.85575,-47.64037 -19.85171,-6.87982 -27.30205,-7.93218 -57.11542,-8.06753 -28.17966,-0.12794 -38.102,1.03074 -55.71429,6.50597 -62.81309,19.52707 -111.771,69.7363 -127.11815,130.36724 -5.52912,21.84346 -5.52912,64.09883 0,85.94229 17.09432,67.53334 74.18381,120.06168 147.31441,135.5448 17.77323,3.76291 66.78591,1.23014 85.51803,-4.4192 z"
       id="path873"
       inkscape:connector-curvature="0"
       transform="matrix(0.26458333,0,0,0.26458333,0,32.41665)" />
    <path
       style="opacity:1;fill:#ffffff;fill-opacity:0;stroke:#000000;stroke-width:0;stroke-linecap:square;stroke-linejoin:round;stroke-miterlimit:4;stroke-dasharray:none;stroke-opacity:1"
       d="m 401.76512,948.06799 c -3.57443,-0.68608 -8.29597,-4.04671 -10.49234,-7.46805 -2.299,-3.58126 -7.13212,-32.1196 -11.39092,-67.26069 -4.06863,-33.57203 -8.10151,-62.17917 -8.962,-63.57143 -0.86046,-1.39226 -2.88417,-2.53137 -4.49717,-2.53137 -4.96854,0 -42.3321,-19.25569 -61.13701,-31.50757 l -17.83434,-11.61952 -59.26411,26.3624 c -55.70569,24.77955 -59.69033,26.11718 -66.36267,22.27783 -8.31585,-4.78503 -109.22075,-175.00211 -109.253743,-184.30083 -0.02801,-7.89585 5.037385,-12.14154 58.550383,-49.07537 l 45.71429,-31.55131 v -47.8196 -47.8196 L 105.40692,414.05551 C 62.095975,381.94628 53.868708,374.67848 53.283741,368.01088 52.21884,355.87288 151.13148,189.78887 161.61605,186.11029 c 6.42819,-2.25537 16.73631,1.01506 65.09263,20.65178 31.60022,12.83234 58.78874,23.33152 60.41894,23.33152 1.63021,0 8.56552,-3.85394 15.41181,-8.56431 10.19138,-7.01185 56.89443,-31.23102 67.083,-34.78776 1.47097,-0.5135 6.0534,-27.93364 10.18317,-60.93364 4.1298,-33.000002 9.24246,-62.71473 11.36152,-66.032731 2.11903,-3.318 7.95774,-6.853714 12.97486,-7.857142 5.01714,-1.003428 49.50265,-1.824415 98.85671,-1.824415 97.38866,0 107.87391,1.401878 110.78329,14.811721 0.78954,3.639268 4.1102,30.402565 7.3792,59.473997 3.269,29.07143 6.50385,55.56455 7.18854,58.8736 0.89586,4.32957 9.04186,9.78595 29.05346,19.46074 15.29468,7.39435 34.09374,17.95975 41.77565,23.47866 l 13.96712,10.03438 58.96831,-26.23083 c 47.94949,-21.32934 60.27552,-25.77112 65.96392,-23.77061 5.24082,1.8431 19.44528,23.59987 56.6276,86.73571 27.2976,46.35152 50.91337,87.45332 52.47948,91.33738 1.81012,4.48911 1.8662,9.17317 0.154,12.85714 -1.48146,3.18737 -25.89394,21.8476 -54.24997,41.46711 -50.77274,35.12963 -51.52697,35.8028 -49.61937,44.28572 2.58068,11.47603 2.46146,47.65323 -0.22143,67.18528 l -2.15849,15.71429 48.87449,35.71428 c 26.88094,19.64286 50.67371,38.25038 52.87277,41.35003 2.19906,3.09963 3.99829,8.78363 3.99829,12.63109 0,6.50826 -90.63903,164.8212 -99.35586,173.53803 -9.22197,9.22197 -16.29651,7.44071 -75.3138,-18.96283 l -58.40334,-26.12886 -15.18212,10.21683 c -14.89543,10.02383 -60.79183,33.07 -65.85894,33.07 -3.42483,0 -4.50006,6.35471 -11.84411,70 -3.4452,29.85714 -7.30995,57.10123 -8.58832,60.54243 -1.467,3.94897 -6.32637,7.36806 -13.17466,9.26977 -10.44851,2.90149 -182.90268,3.79226 -197.34928,1.01934 z M 552.54978,674.19034 c 35.65254,-10.75235 71.66391,-34.24875 93.41522,-60.95078 57.6142,-70.72745 53.11489,-172.949 -10.44405,-237.28242 -22.46683,-22.74058 -45.19437,-37.01438 -75.85575,-47.64037 -19.85171,-6.87982 -27.30205,-7.93218 -57.11542,-8.06753 -28.17966,-0.12794 -38.102,1.03074 -55.71429,6.50597 -62.81309,19.52707 -111.771,69.7363 -127.11815,130.36724 -5.52912,21.84346 -5.52912,64.09883 0,85.94229 17.09432,67.53334 74.18381,120.06168 147.31441,135.5448 17.77323,3.76291 66.78591,1.23014 85.51803,-4.4192 z"
       id="path875"
       inkscape:connector-curvature="0"
       transform="matrix(0.26458333,0,0,0.26458333,0,32.41665)" />
    <path
       style="opacity:1;fill:#ffffff;fill-opacity:0;stroke:#000000;stroke-width:0;stroke-linecap:square;stroke-linejoin:round;stroke-miterlimit:4;stroke-dasharray:none;stroke-opacity:1"
       d="m 401.76512,948.06799 c -3.57443,-0.68608 -8.29597,-4.04671 -10.49234,-7.46805 -2.299,-3.58126 -7.13212,-32.1196 -11.39092,-67.26069 -4.06863,-33.57203 -8.10151,-62.17917 -8.962,-63.57143 -0.86046,-1.39226 -2.88417,-2.53137 -4.49717,-2.53137 -4.96854,0 -42.3321,-19.25569 -61.13701,-31.50757 l -17.83434,-11.61952 -59.26411,26.3624 c -55.70569,24.77955 -59.69033,26.11718 -66.36267,22.27783 -8.31585,-4.78503 -109.22075,-175.00211 -109.253743,-184.30083 -0.02801,-7.89585 5.037385,-12.14154 58.550383,-49.07537 l 45.71429,-31.55131 v -47.8196 -47.8196 L 105.40692,414.05551 C 62.095975,381.94628 53.868708,374.67848 53.283741,368.01088 52.21884,355.87288 151.13148,189.78887 161.61605,186.11029 c 6.42819,-2.25537 16.73631,1.01506 65.09263,20.65178 31.60022,12.83234 58.78874,23.33152 60.41894,23.33152 1.63021,0 8.56552,-3.85394 15.41181,-8.56431 10.19138,-7.01185 56.89443,-31.23102 67.083,-34.78776 1.47097,-0.5135 6.0534,-27.93364 10.18317,-60.93364 4.1298,-33.000002 9.24246,-62.71473 11.36152,-66.032731 2.11903,-3.318 7.95774,-6.853714 12.97486,-7.857142 5.01714,-1.003428 49.50265,-1.824415 98.85671,-1.824415 97.38866,0 107.87391,1.401878 110.78329,14.811721 0.78954,3.639268 4.1102,30.402565 7.3792,59.473997 3.269,29.07143 6.50385,55.56455 7.18854,58.8736 0.89586,4.32957 9.04186,9.78595 29.05346,19.46074 15.29468,7.39435 34.09374,17.95975 41.77565,23.47866 l 13.96712,10.03438 58.96831,-26.23083 c 47.94949,-21.32934 60.27552,-25.77112 65.96392,-23.77061 5.24082,1.8431 19.44528,23.59987 56.6276,86.73571 27.2976,46.35152 50.91337,87.45332 52.47948,91.33738 1.81012,4.48911 1.8662,9.17317 0.154,12.85714 -1.48146,3.18737 -25.89394,21.8476 -54.24997,41.46711 -50.77274,35.12963 -51.52697,35.8028 -49.61937,44.28572 2.58068,11.47603 2.46146,47.65323 -0.22143,67.18528 l -2.15849,15.71429 48.87449,35.71428 c 26.88094,19.64286 50.67371,38.25038 52.87277,41.35003 2.19906,3.09963 3.99829,8.78363 3.99829,12.63109 0,6.50826 -90.63903,164.8212 -99.35586,173.53803 -9.22197,9.22197 -16.29651,7.44071 -75.3138,-18.96283 l -58.40334,-26.12886 -15.18212,10.21683 c -14.89543,10.02383 -60.79183,33.07 -65.85894,33.07 -3.42483,0 -4.50006,6.35471 -11.84411,70 -3.4452,29.85714 -7.30995,57.10123 -8.58832,60.54243 -1.467,3.94897 -6.32637,7.36806 -13.17466,9.26977 -10.44851,2.90149 -182.90268,3.79226 -197.34928,1.01934 z M 552.54978,674.19034 c 35.65254,-10.75235 71.66391,-34.24875 93.41522,-60.95078 57.6142,-70.72745 53.11489,-172.949 -10.44405,-237.28242 -22.46683,-22.74058 -45.19437,-37.01438 -75.85575,-47.64037 -19.85171,-6.87982 -27.30205,-7.93218 -57.11542,-8.06753 -28.17966,-0.12794 -38.102,1.03074 -55.71429,6.50597 -62.81309,19.52707 -111.771,69.7363 -127.11815,130.36724 -5.52912,21.84346 -5.52912,64.09883 0,85.94229 17.09432,67.53334 74.18381,120.06168 147.31441,135.5448 17.77323,3.76291 66.78591,1.23014 85.51803,-4.4192 z"
       id="path877"
       inkscape:connector-curvature="0"
       transform="matrix(0.26458333,0,0,0.26458333,0,32.41665)" />
    <path
       style="opacity:1;fill:#ffffff;fill-opacity:0;stroke:#000000;stroke-width:0;stroke-linecap:square;stroke-linejoin:round;stroke-miterlimit:4;stroke-dasharray:none;stroke-opacity:1"
       d="m 401.76512,948.06799 c -3.57443,-0.68608 -8.29597,-4.04671 -10.49234,-7.46805 -2.299,-3.58126 -7.13212,-32.1196 -11.39092,-67.26069 -4.06863,-33.57203 -8.10151,-62.17917 -8.962,-63.57143 -0.86046,-1.39226 -2.88417,-2.53137 -4.49717,-2.53137 -4.96854,0 -42.3321,-19.25569 -61.13701,-31.50757 l -17.83434,-11.61952 -59.26411,26.3624 c -55.70569,24.77955 -59.69033,26.11718 -66.36267,22.27783 -8.31585,-4.78503 -109.22075,-175.00211 -109.253743,-184.30083 -0.02801,-7.89585 5.037385,-12.14154 58.550383,-49.07537 l 45.71429,-31.55131 v -47.8196 -47.8196 L 105.40692,414.05551 C 62.095975,381.94628 53.868708,374.67848 53.283741,368.01088 52.21884,355.87288 151.13148,189.78887 161.61605,186.11029 c 6.42819,-2.25537 16.73631,1.01506 65.09263,20.65178 31.60022,12.83234 58.78874,23.33152 60.41894,23.33152 1.63021,0 8.56552,-3.85394 15.41181,-8.56431 10.19138,-7.01185 56.89443,-31.23102 67.083,-34.78776 1.47097,-0.5135 6.0534,-27.93364 10.18317,-60.93364 4.1298,-33.000002 9.24246,-62.71473 11.36152,-66.032731 2.11903,-3.318 7.95774,-6.853714 12.97486,-7.857142 5.01714,-1.003428 49.50265,-1.824415 98.85671,-1.824415 97.38866,0 107.87391,1.401878 110.78329,14.811721 0.78954,3.639268 4.1102,30.402565 7.3792,59.473997 3.269,29.07143 6.50385,55.56455 7.18854,58.8736 0.89586,4.32957 9.04186,9.78595 29.05346,19.46074 15.29468,7.39435 34.09374,17.95975 41.77565,23.47866 l 13.96712,10.03438 58.96831,-26.23083 c 47.94949,-21.32934 60.27552,-25.77112 65.96392,-23.77061 5.24082,1.8431 19.44528,23.59987 56.6276,86.73571 27.2976,46.35152 50.91337,87.45332 52.47948,91.33738 1.81012,4.48911 1.8662,9.17317 0.154,12.85714 -1.48146,3.18737 -25.89394,21.8476 -54.24997,41.46711 -50.77274,35.12963 -51.52697,35.8028 -49.61937,44.28572 2.58068,11.47603 2.46146,47.65323 -0.22143,67.18528 l -2.15849,15.71429 48.87449,35.71428 c 26.88094,19.64286 50.67371,38.25038 52.87277,41.35003 2.19906,3.09963 3.99829,8.78363 3.99829,12.63109 0,6.50826 -90.63903,164.8212 -99.35586,173.53803 -9.22197,9.22197 -16.29651,7.44071 -75.3138,-18.96283 l -58.40334,-26.12886 -15.18212,10.21683 c -14.89543,10.02383 -60.79183,33.07 -65.85894,33.07 -3.42483,0 -4.50006,6.35471 -11.84411,70 -3.4452,29.85714 -7.30995,57.10123 -8.58832,60.54243 -1.467,3.94897 -6.32637,7.36806 -13.17466,9.26977 -10.44851,2.90149 -182.90268,3.79226 -197.34928,1.01934 z M 552.54978,674.19034 c 35.65254,-10.75235 71.66391,-34.24875 93.41522,-60.95078 57.6142,-70.72745 53.11489,-172.949 -10.44405,-237.28242 -22.46683,-22.74058 -45.19437,-37.01438 -75.85575,-47.64037 -19.85171,-6.87982 -27.30205,-7.93218 -57.11542,-8.06753 -28.17966,-0.12794 -38.102,1.03074 -55.71429,6.50597 -62.81309,19.52707 -111.771,69.7363 -127.11815,130.36724 -5.52912,21.84346 -5.52912,64.09883 0,85.94229 17.09432,67.53334 74.18381,120.06168 147.31441,135.5448 17.77323,3.76291 66.78591,1.23014 85.51803,-4.4192 z"
       id="path879"
       inkscape:connector-curvature="0"
       transform="matrix(0.26458333,0,0,0.26458333,0,32.41665)" />
    <path
       id="path3566"
       d="m 223.0827,176.61598 c 0,-3.57299 1.22447,-8.33444 1.22447,-11.90654 0,-3.573 0,-8.33444 -1.22447,-11.90609 l 25.71231,-17.85959 c 2.44895,-1.188 3.67296,-4.76235 1.22447,-8.33399 L 225.53155,84.937542 c -1.22447,-3.572997 -4.89757,-4.762347 -7.34638,-3.572997 l -29.3855,13.096791 c -6.12195,-4.762347 -14.69275,-9.525144 -22.03913,-11.906092 l -3.67295,-30.956381 c 0,-3.572997 -2.44895,-5.953046 -6.12195,-5.953046 h -48.97587 c -3.67295,0 -6.12195,2.380499 -6.12195,5.953046 l -3.672948,29.765682 c -8.57081,3.572997 -15.91718,7.143745 -22.03913,11.906092 l -29.3855,-11.906092 c -2.44895,-1.1925 -6.122,0 -7.34638,2.380498 L 14.935931,125.41682 c -2.448946,3.57299 -2.448946,7.14374 1.224473,8.33444 l 25.712318,19.04984 c 0,3.573 -1.22448,8.33444 -1.22448,11.90609 0,3.573 0,8.33445 1.22448,11.90654 l -25.712318,17.85914 c -2.448946,1.1925 -3.672957,4.76235 -1.224473,8.33445 l 24.487931,41.67177 c 1.22448,3.573 4.89757,4.76235 7.34638,3.573 l 29.3855,-13.09679 c 6.12195,4.76235 14.69275,9.52514 22.03913,11.90609 l 3.672948,30.95638 c 0,3.573 2.44895,5.95305 6.12195,5.95305 h 48.97587 c 3.67296,0 6.12195,-2.3805 6.12195,-5.95305 l 3.67295,-30.95638 c 8.57081,-3.57299 15.91718,-7.14374 22.03913,-11.90609 l 29.3855,13.09679 c 2.44895,1.1925 6.122,0 7.34638,-2.3805 l 24.48793,-41.67132 c 1.22448,-2.3805 1.22448,-5.95305 -1.22447,-8.33445 z m -90.60532,35.71873 c -26.93669,0 -48.975818,-21.43124 -48.975818,-47.62527 0,-26.19358 22.039128,-47.62482 48.975818,-47.62482 26.9367,0 48.97582,21.43124 48.97582,47.62482 0,26.19403 -22.03912,47.62527 -48.97582,47.62527 z"
       inkscape:connector-curvature="0"
       style="stroke-width:1.32291667;fill:#ffffff;fill-opacity:0;stroke:#000000;stroke-opacity:1;stroke-miterlimit:4;stroke-dasharray:none" />
  </g>
</svg>
